<svg version="1.2" xmlns="http://www.w3.org/2000/svg" fill="currentColor" viewBox="0 0 512 512" width="96" height="96"><style>.a{fill:#53f074}.b{fill:#56198b}</style><path class="a" d="m131.9 270.1l-20.8-14.3 20.8-14.4 20.8 14.3zm-20.8-14.3l-20.9-14.3 20.8-14.3 20.9 14.3zm20.8-14.4l-20.8-14.3 20.8-14.3 20.8 14.3zm20.9 14.3l-20.9-14.3 20.8-14.4 20.9 14.4zm20.8 14.3l-20.8-14.3 20.8-14.4 20.8 14.4zm20.9 14.3l-20.9-14.3 20.8-14.4 20.9 14.3zm20.8 14.4l-20.8-14.4 20.8-14.3 20.8 14.3zm-20.8 14.4l-20.8-14.4 20.8-14.3 20.8 14.3zm-20.8-14.3l-20.8-14.3 20.8-14.4 20.8 14.4zm-20.8-14.4l-20.9-14.3 20.8-14.3 20.9 14.3zm62.5 43l-20.8-14.4 20.8-14.3 20.8 14.3zm20.8-14.3l-20.8-14.3 20.8-14.4 20.8 14.3zm20.9 14.4l-20.9-14.4 20.9-14.3 20.8 14.3zm20.8 14.4l-20.8-14.4 20.8-14.3 20.9 14.3zm-20.9 14.4l-20.8-14.4 20.8-14.3 20.9 14.3zm-20.9-14.3l-20.8-14.3 20.8-14.4 20.8 14.3zm124.9-57.4l-20.8-14.3 20.8-14.3 20.9 14.3zm-0.1-28.7l-20.8-14.3 20.8-14.3 20.9 14.3zm-20.9-14.3l-20.8-14.4 20.8-14.3 20.8 14.3zm-20.8-14.3l-20.8-14.3 20.8-14.4 20.8 14.3zm-20.8-14.3l-20.9-14.3 20.8-14.4 20.9 14.4zm-20.9-14.4l-20.8-14.3 20.8-14.3 20.9 14.3zm-20.9-14.3l-20.8-14.4 20.8-14.3 20.8 14.3zm20.9 43l-20.8-14.3 20.8-14.3 20.8 14.3zm20.9 14.3l-20.9-14.3 20.8-14.4 20.9 14.4zm20.8 14.3l-20.8-14.3 20.8-14.4 20.8 14.4zm20.9 14.3l-20.9-14.3 20.8-14.4 20.9 14.3zm-83.4-57.3l-20.8-14.3 20.8-14.3 20.8 14.3zm-83.2 28.7l-20.9-14.3 20.8-14.4 20.9 14.3zm20.8-14.3l-20.9-14.3 20.9-14.4 20.8 14.4zm20.8-14.4l-20.8-14.3 20.8-14.4 20.8 14.4zm-20.8-14.4l-20.8-14.3 20.8-14.3 20.8 14.3zm20.8-14.3l-20.8-14.4 20.8-14.3 20.8 14.3zm20.9 14.3l-20.9-14.3 20.9-14.3 20.8 14.3zm-62.5 14.4l-20.8-14.4 20.8-14.3 20.8 14.3zm-104.1 14.4l-20.8-14.3 20.8-14.4 20.8 14.3zm20.8-14.3l-20.8-14.3 20.8-14.4 20.9 14.4zm20.8 14.3l-20.8-14.3 20.8-14.4 20.8 14.3zm-20.8 14.4l-20.8-14.3 20.8-14.4 20.8 14.3zm208.4 86l-20.9-14.4 20.8-14.3 20.9 14.3zm20.8-14.3l-20.9-14.3 20.9-14.4 20.8 14.3zm20.8-14.3l-20.8-14.3 20.8-14.4 20.8 14.4zm-20.8-14.4l-20.8-14.3 20.8-14.3 20.8 14.3zm-20.8 14.3l-20.8-14.3 20.8-14.3 20.8 14.3zm-20.8 14.3l-20.8-14.3 20.8-14.3 20.8 14.3z"/><path class="b" d="m402.6 227l-20.8-14.3 20.8-14.4 20.8 14.3zm20.8-14.3l-20.8-14.3 20.8-14.4 20.9 14.4zm20.8 14.3l-20.8-14.3 20.8-14.4 20.8 14.3zm-20.8 14.4l-20.8-14.3 20.8-14.4 20.8 14.3z"/></svg>