<svg version="1.2" xmlns="http://www.w3.org/2000/svg" viewBox="0 0 200 112" width="200" height="112"><defs><clipPath clipPathUnits="userSpaceOnUse" id="cp1"><path d="m32-37h135.8v242.64h-135.8z"/></clipPath></defs><style>.a{fill:#fff}.b{fill:#53f074}.c{fill:#56198b}</style><g clip-path="url(#cp1)"><path fill-rule="evenodd" class="a" d="m109.8 62.5c-0.7 10.6-7.2 18.7-9.6 18.7q-0.1 0.1-0.1 0.1 0 0 0-0.1c-2.5 0-9-8.1-9.6-18.7-0.4-6.5-0.9-16.4-0.9-18.7 0-1.2 0-1.7 0-2 0-0.4 0-0.6 0-1.1q0-0.2 0-0.4 0 0 0 0 0-0.4 0-0.6c-0.2-1.6-0.5-2.6-0.8-3.4-0.3-1-0.4-1.5-0.1-2.2 0.4-0.9 1.5-1.7 3.4-2.5q0-0.1 0-0.1 0.5-0.1 1-0.3v-0.1c4.2-1.5 5.7-0.7 6.1-0.5q0.6 0.5 0.6 1.4c0 0.2 0.1 0.3 0.3 0.3q0 0 0.1 0c0.1 0 0.2-0.1 0.2-0.3q0-0.9 0.7-1.4c1.2-0.8 3.9-0.3 6.1 0.6q0 0 0 0 0.5 0.2 1 0.3 0 0 0 0 0 0 0 0.1c1.9 0.7 3 1.5 3.4 2.5 0.3 0.7 0.1 1.2-0.2 2.2v0.1c-0.3 0.8-0.6 1.8-0.7 3.3q0 0 0 0.1v0.1q0 0.2 0 0.4 0 0-0.1 0 0 0.2 0 0.4c0 0.4 0 0.7 0 1v0.1c0.1 0.3 0.1 0.8 0.1 2 0 2.2-0.5 12.1-0.9 18.7zm-18.6-22.8q0 0 0 0c2.9-0.8 4.9-1.3 7.7-1.3 0.5 0 0.9-0.3 1.2-0.9 0 0 0.1 0 0.1 0q0.4 0.9 1.2 0.9 0.3 0 0.5 0c2.5 0 4.4 0.5 7.1 1.3 0.2 0 0.3 0 0.4-0.2q0-0.1-0.1-0.2 0-0.1-0.1-0.1c-2.9-0.9-4.9-1.4-7.8-1.3-0.9 0-1-1.4-1-3.5 0-0.2-0.1-0.3-0.2-0.3q-0.1 0-0.1 0c-0.1 0-0.3 0.1-0.3 0.3 0 2.1 0 3.5-0.9 3.5-2.9-0.1-4.9 0.4-7.8 1.3-0.1 0-0.2 0.2-0.2 0.3 0 0.1 0.2 0.2 0.3 0.2zm15.7 0.2c0-0.1-0.1-0.3-0.2-0.3l-0.2-0.1c-1.2-0.3-3-0.8-4.6-0.5q-1.2 0.2-1.7 1.1c0 0-0.1 0-0.1 0q-0.5-0.9-1.7-1.1c-1.6-0.3-3.5 0.2-4.6 0.5l-0.2 0.1c-0.2 0-0.2 0.2-0.2 0.3q0 0.1 0.1 0.2 0.1 0 0.2 0l0.3-0.1c1-0.2 2.8-0.7 4.3-0.5 1.3 0.3 1.5 1 1.5 2.3 0 0.2 0.2 0.3 0.3 0.3q0 0 0 0 0.1 0 0.1 0c0.1 0 0.2-0.1 0.2-0.3 0-1.3 0.3-2 1.6-2.3 1.5-0.2 3.2 0.3 4.3 0.5l0.3 0.1q0.1 0 0.2 0 0.1-0.1 0.1-0.2zm-15.2 9.1h0.3c0.6 0 1.4 0 2.2 0 2 0 4.1-0.1 5.4-0.8q0.3-0.2 0.5-0.4 0-0.1 0-0.1 0.1 0 0.1 0.1 0.2 0.3 0.5 0.4c1.3 0.7 3.3 0.8 5.4 0.8 0.8 0 1.5 0 2.2 0h0.3c0.1 0 0.2-0.1 0.2-0.3q0-0.1-0.1-0.2-0.1 0-0.2 0h-0.3c-3 0-5.8 0.1-7.2-0.7-0.4-0.2-0.6-0.6-0.6-1.3q0-0.6 0-1.1 0-0.1 0-0.2c0-0.4 0-0.8 0-1.2 0-0.1-0.1-0.2-0.2-0.2q-0.1 0-0.1 0c-0.1 0-0.3 0.1-0.3 0.2q0 0.5 0.1 1.2v0.3q0 0.5 0 0.9c-0.1 0.6-0.1 1.1-0.6 1.4-1.4 0.8-4.3 0.7-7.3 0.7h-0.3q-0.1 0-0.2 0 0 0.1 0 0.2 0 0.1 0 0.2 0.1 0.1 0.2 0.1zm15.2 0.8c0-0.1-0.1-0.3-0.2-0.3-1.1-0.1-3-0.3-4.8-0.3q-1.2 0-1.7 0.9c0 0-0.1 0-0.1 0q-0.5-0.9-1.8-0.9c-1.7 0-3.5 0.2-4.7 0.3-0.1 0-0.2 0.2-0.2 0.3 0 0.2 0.1 0.3 0.3 0.2 1.1-0.1 3-0.3 4.6-0.3 1.3 0 1.5 0.7 1.5 2.5 0 0.2 0.2 0.3 0.3 0.3q0 0 0 0 0.1 0 0.1 0c0.1 0 0.2-0.1 0.2-0.3 0-1.8 0.3-2.5 1.5-2.5 1.7 0 3.5 0.2 4.7 0.3q0.1 0.1 0.2 0 0.1-0.1 0.1-0.2zm-15.1 8.7q0.1 0.1 0.2 0.1c1.1 0.1 1.9 0.1 2.6 0.2 0.8 0 1.6 0.1 2.6 0.1q0.7 0 1.2 0c0.9-0.1 1.4-0.4 1.7-1q0-0.1 0-0.1 0.1 0 0.1 0.1c0.3 0.6 0.8 0.9 1.7 1q0.5 0 1.1 0c1.1 0 1.8-0.1 2.7-0.1 0.7-0.1 1.4-0.1 2.5-0.2q0.2 0 0.2-0.1 0.1 0 0.1-0.2 0-0.1-0.1-0.2-0.1 0-0.2 0c-1 0-1.7 0.1-2.4 0.1h-0.2c-1 0.1-2 0.2-3.7 0.1-1.1-0.1-1.5-0.2-1.5-3.6 0-0.1-0.1-0.3-0.2-0.3q-0.1 0.1-0.1 0c-0.1 0-0.3 0.2-0.3 0.3 0 3.2-0.2 3.5-1.4 3.6-1.8 0.1-2.7 0-3.7-0.1h-0.2c-0.7 0-1.4-0.1-2.5-0.1q-0.1 0-0.1 0.1-0.1 0-0.1 0.2 0 0.1 0 0.1zm8 20.1c0 0.2 0.2 0.3 0.3 0.3 0.2 0 0.3-0.1 0.3-0.3v-13.5c0-0.1-0.1-0.3-0.3-0.3-0.1 0-0.3 0.2-0.3 0.3zm0.6-16.5c0-0.9 0.2-1.5 0.8-1.7 1.2-0.2 4.3-0.5 5.4-0.5q0 0 0 0 0.1 0 0.2 0 0.1-0.1 0.1-0.2 0-0.2-0.1-0.2-0.1-0.1-0.2-0.1c-1.2 0-4.4 0.3-5.5 0.5q-0.6 0.2-0.9 0.7 0 0-0.1 0 0 0 0 0-0.3-0.5-0.9-0.7c-1.2-0.2-4.3-0.5-5.6-0.5q-0.1 0-0.1 0.1-0.1 0-0.1 0.2 0 0.1 0.1 0.2 0.1 0 0.2 0 0 0 0.1 0c1.3 0 4.2 0.3 5.2 0.6 0.7 0.1 0.8 0.7 0.9 1.6q0 0.4 0 0.7v0.2c0 0.1 0.1 0.3 0.2 0.3 0.2 0 0.3-0.2 0.3-0.3v-0.2q0-0.3 0-0.7 0 0 0 0z"/><path class="a" d="m88.5 45.3c-0.6 3.2-1.2 6.7-0.8 10 1 6.7-1.3 9.8-2.4 10.9-1 1-2.6 1.5-4.3 1.5q-0.5 0-1.1-0.1-0.1 0-0.1-0.1c0.3-2.1 0.5-4 0.6-5.4 0.1-1 0.2-2 0.4-3.1 0.5-3.9 1.1-8-0.9-11.9-4-7.7-5-12.6-5.2-13.5q0 0 0 0 0.4-1 0.5-2.1c0.2-1.2 0.6-3.8-0.2-5.8q0-0.1 0-0.1 0.1-0.1 0.1 0c0.5 0.4 0.9 1 1.3 1.4q0.3 0.4 0.6 0.7 0 0 0 0 0 0 0.1 0 0 0 0 0.1c2.1 2.3 4.5 4.4 6.7 6.3 2.7 2.4 5.1 4.4 5.2 5.7q0 0 0 0.1 0.1 0 0.1 0.1 0 0 0 0.1v0.2q0 0 0 0c0 1.3-0.3 3-0.6 5z"/><path class="a" d="m125.1 25.6q0.1 0 0.2 0 0 0 0 0.1c-0.9 2-0.5 4.6-0.3 5.8q0.2 1.1 0.6 2.1 0 0 0 0c-0.3 1.3-1.3 6-5.2 13.5-2 3.9-1.4 8-0.9 11.9 0.1 1.1 0.3 2.1 0.3 3.1 0.2 1.3 0.4 3.3 0.6 5.5q0 0 0 0-0.6 0.1-1.2 0.1c-1.6 0-3.2-0.5-4.3-1.5-1-1.1-3.4-4.2-2.4-10.9 0.5-3.3-0.1-6.9-0.7-10-0.3-2-0.7-3.7-0.6-5q0 0 0 0 0 0 0-0.1 0-0.2 0-0.4 0 0 0-0.1c0.2-1.2 2.6-3.3 5.3-5.6 2.1-1.9 4.6-4 6.7-6.3v-0.1q0 0 0 0 0.4-0.3 0.7-0.7c0.4-0.5 0.8-1 1.2-1.4z"/><path class="b" d="m59.7 48c1.2 0 2.6-0.5 4-1.5q0 0 0.1 0.1 0 0 0 0.1c-0.8 1.1-1.8 2.4-2.3 3.1-0.9 1.6-1.5 2.7-1.9 3.6v0.1c-0.8 1.7-1.6 3.3-4.3 6.6-2.4 3.1-4.1 4.3-5.8 5.7-1.3 1-2.6 2-4.2 3.7q-0.1 0-0.1 0c-0.3 0.4-0.9 1.2-1.3 2.1q0 0-0.1 0-0.9 0.4-1.7 0.4-0.8 0-1.4-0.3c-1-0.5-1.7-1.7-1.9-3q0-0.1 0-0.1 0.2-0.5 0.5-1.1c0.7-1.6 1.6-3.7 2.6-6v-0.1c2.2-5.5 4.9-12.3 7.6-15.6 1.6-1.9 2.8-3.1 3.6-4 1.2-1.3 1.9-2 2.4-3.2q0 0 0-0.1 0.1-0.1 0.1-0.3h0.1q0-0.1 0.1 0 0 0 0 0.1c-1.5 6.1 0.3 8.4 2 9.3q0.9 0.4 1.9 0.4z"/><path class="b" d="m161 67.5q0.3 0.6 0.5 1.1 0 0 0 0c-0.2 1.4-1 2.6-1.9 3.1q-0.6 0.3-1.4 0.3-0.9 0-1.8-0.4 0 0 0 0c-0.5-0.8-1.1-1.7-1.4-2.1q0 0 0 0 0 0 0 0c-1.6-1.7-2.9-2.7-4.2-3.7-1.8-1.4-3.5-2.6-5.9-5.7-2.6-3.3-3.4-4.9-4.2-6.6v-0.1c-0.5-1-1-2.1-2-3.6-0.4-0.6-1.2-1.7-2.2-3.1q-0.1-0.1 0-0.1 0-0.1 0.1-0.1c1.3 1 2.7 1.5 4 1.5q1 0 1.9-0.4c1.7-0.9 3.4-3.2 1.9-9.3q0-0.1 0.1-0.1 0.1 0 0.1 0 0.1 0.1 0.1 0.3 0 0 0.1 0.1c0.5 1.3 1.1 1.9 2.3 3.2l0.1 0.1c0.9 0.9 2 2.1 3.5 3.9 2.7 3.3 5.5 10.1 7.7 15.7l0.1 0.1c0.9 2.2 1.7 4.3 2.5 5.9z"/><path class="a" d="m74.3 33.1q0 0.1 0 0.1-0.1 0-0.1 0.1c-0.9 2-2.3 3.3-3.2 4.1q-0.2 0.2-0.3 0.3c-0.4 0.4-2 2.4-4.4 5.6-2.5 3.1-4.8 4.1-6.6 4.1q-0.9 0-1.6-0.3c-2-1-4.4-4.3 0.8-15.9 0 0 0.1-0.1 0.1-0.1 1.7-3.2 2.7-4.3 3.2-4.9h0.1q0.1-0.2 0.3-0.3 0 0 0 0 0.9-0.6 1.9-1.1 0.8-0.4 1.7-0.6 0 0 0 0 1-0.3 2-0.4 0 0 0.1 0 0.5-0.1 0.8-0.1c1.6 0 3.2-0.1 4.4 0.9 2 1.6 1.4 5.4 1.2 6.8h-0.1 0.1q-0.1 0.9-0.4 1.7z"/><path class="a" d="m141.3 31.1c5.3 11.7 2.8 15 0.9 16q-0.7 0.3-1.6 0.3c-1.8 0-4.1-1-6.6-4.1q0 0 0 0c-2.4-3.1-4-5.2-4.4-5.5q-0.1-0.2-0.3-0.4c-1-0.8-2.4-2.1-3.2-4.1q0-0.1-0.1-0.1 0 0 0-0.1-0.3-0.8-0.4-1.7c-0.3-1.4-0.9-5.2 1.2-6.8 1.1-1 2.7-0.9 4.4-0.9q0.3 0 0.8 0.1 0 0 0 0 0.1 0 0.1 0 1 0.1 1.9 0.4 0.1 0 0.1 0 0.9 0.2 1.7 0.6 1 0.5 1.9 1.1 0 0 0 0 0.1 0.1 0.2 0.2 0.1 0.1 0.1 0.1c0.6 0.6 1.6 1.7 3.3 4.9z"/><path class="a" d="m63.3 24.8q0 0-0.1 0 0 0 0 0-0.1 0-0.1-0.1c1.1-4.2 1.8-5.7 2.2-6.7 0.2-0.5 0.3-0.9 0.5-1.5 1.1-3.7 3.9-8.3 10.6-9.4q0.2 0 0.3 0l0.1-0.1q0.1 0 0.2 0 0.2-0.1 0.3-0.1 0.2-0.1 0.4-0.1l0.2-0.1q0 0 0 0c3.6-0.7 7.3 0.2 9.2 0.9q0.1 0 0.1 0 0 0.1-0.1 0.1c-0.8 0.3-2 0.8-3.1 1.5-2.2 1.4-3.1 2.7-4.4 4.4v0.1c-0.7 0.8-1.3 1.7-2.3 2.8-1 1.2-3.1 3.6-5.7 5.4-0.7 0.5-1.9 0.9-3.4 1.3q0 0-0.1 0-1 0.1-2 0.5 0 0-0.1 0 0 0 0 0-0.9 0.2-1.7 0.6-0.6 0.2-1 0.5z"/><path class="a" d="m113.1 7.6q0 0 0.1 0c1.9-0.6 5.6-1.6 9.1-0.9q0.1 0.1 0.2 0.1 0.1 0 0.2 0l0.2 0.1h0.1q0.4 0.1 0.6 0.2 0.1 0 0.3 0c6.7 1.1 9.4 5.7 10.6 9.4 0.1 0.6 0.3 1 0.5 1.5 0.4 1 1 2.5 2.1 6.7q0 0.1 0 0.1 0 0-0.1 0 0 0 0 0-0.5-0.3-1-0.5c-1.6-0.7-3-1-3.9-1.1-1.5-0.3-2.7-0.8-3.4-1.3-2.7-1.8-4.7-4.2-5.7-5.4-1-1.2-1.7-2.1-2.3-2.8v-0.1c-1.3-1.7-2.3-3-4.5-4.4-1-0.6-2.2-1.2-3-1.5q-0.1 0-0.1-0.1z"/><path class="a" d="m112.1 7.4q0 0 0 0v-0.1c-2.2-0.7-3.4-1.5-3.4-3.5v-4.2q0-0.1 0.1-0.1 0 0 0.1 0c0.6 0.6 1.7 1.6 2.5 2 0.5 0.3 2.1 0.9 3.5 1.5h0.1l0.4 0.2q0.2 0.1 0.4 0.2c0.7 0.3 1.4 0.6 1.7 0.7 0.6 0.3 1.5 1 2.2 1.5v0.1q0.1 0 0.1 0 0.1 0.1 0.1 0.1 0 0 0 0.1 0 0-0.1 0-0.1 0-0.2 0c-3.6 0-6.8 1.2-7.5 1.4q0 0.1 0 0.1z"/><path class="a" d="m88.1 7.4c-0.6-0.3-3.9-1.5-7.7-1.5q0 0-0.1 0 0-0.1 0.1-0.1 0 0 0 0 0.1-0.1 0.1-0.1l0.1-0.1c0.6-0.4 1.5-1.2 2.1-1.5 0.4-0.1 1.2-0.5 2.1-0.9l0.5-0.2h0.1c1.4-0.6 2.9-1.2 3.5-1.5 0.7-0.4 1.7-1.3 2.5-2q0 0 0.1 0 0 0 0 0.1v4.2c0 2-1.1 2.8-3.3 3.6q0 0 0 0-0.1 0-0.1 0z"/><path class="a" d="m88.3 7.9q0 0 0 0h0.1c1-0.3 2.7-0.9 5.9-0.6 5.5 0.6 5.5 4 5.5 4.2v10c0 2-0.7 3.9-1.9 5.4q-2.1 2.5-5 3.8 0 0 0 0-0.1 0-0.1 0-0.5 0.2-0.9 0.3 0 0 0 0-2.1 0.8-4.3 0.8c-3.7 0-7.3-1.5-10-4.3q0 0 0 0-0.1 0-0.1 0 0-0.1-0.1-0.1 0-0.1 0-0.1 0 0 0 0-0.3-0.3-0.6-0.7c-1.3-1.6-3-3.4-6-3.5q-0.1 0-0.1 0 0-0.1 0-0.1 0.7-0.3 1.2-0.6c2.7-1.9 4.8-4.4 5.8-5.6 0.9-1 1.6-1.9 2.2-2.6v-0.1l0.1-0.1c1.3-1.8 2.2-3 4.3-4.3 1.3-0.8 2.9-1.4 3.7-1.7q0 0 0 0l0.2-0.1q0 0 0 0 0 0 0 0 0 0 0 0 0 0 0 0 0 0 0 0 0.1 0 0.1 0z"/><path class="a" d="m107.4 30.7q0 0 0 0c-1.9-0.9-3.6-2.2-5-3.8-1.3-1.5-2-3.4-2-5.4v-10c0 0 0-1.1 0.9-2.1q1.4-1.7 4.7-2.1c3.1-0.3 4.9 0.3 5.9 0.6q0.1 0 0.1 0 0 0 0.1 0 0 0 0 0 0 0 0 0 0 0 0 0 0.1 0.1 0.1 0.1 0 0 0.1 0 0 0 0 0c0.8 0.3 2.3 0.9 3.6 1.7 2.2 1.4 3.1 2.5 4.4 4.3l0.1 0.1c0.6 0.8 1.2 1.7 2.2 2.8 1 1.2 3.1 3.6 5.8 5.5q0.4 0.3 1.1 0.6 0.1 0 0.1 0.1 0 0-0.1 0c-3 0.1-4.7 1.9-6 3.5q-0.3 0.4-0.6 0.7 0 0 0 0 0 0 0 0 0 0 0 0-0.1 0-0.1 0.1 0 0 0 0-0.1 0.1-0.1 0.1 0 0 0 0c-2.7 2.8-6.3 4.3-10 4.3-1.5 0-2.9-0.3-4.3-0.8q0 0 0 0 0 0 0 0c-0.4-0.1-0.7-0.2-1-0.3z"/><path class="a" d="m124.8 123.4v0.1h-0.1c-0.6 3.2-1.2 6.2-2.7 6.9q-0.9 0.5-2.3-0.2-0.6-0.3-1.1-0.1c-0.6 0.3-0.8 1.2-1.1 2.3-0.4 1.9-0.9 4-3.4 4.1h-0.1c-4.6 0-6-10.3-6-10.4q0 0 0 0-0.1 0-0.1 0-0.1-1.5-0.4-2.9 0-0.1 0-0.2c-0.1-0.4-0.2-0.8-0.3-1.3v-0.1q0-0.1-0.1-0.2c-1.1-6.3-0.5-7 0.8-8.6 1.3-1.5 3.2-3.9 4.9-13.1 0.5-2.5 0.8-5.5 1.2-8.6v-0.1c0.9-8.9 2.1-18.9 6.5-22.1q0 0 0.1 0 0 0.1 0 0.1c0.6 4.7 1.2 8.6 1.6 10v0.1q0.1 0.2 0.1 0.4c1.8 6.8 5.7 24.4 2.9 41.8q-0.2 1-0.4 2.1z"/><path class="a" d="m86.3 91c0.3 3 0.7 6.1 1.1 8.7 1.7 9.2 3.7 11.6 5 13.1 1.3 1.6 1.8 2.3 0.7 8.6q0 0.1 0 0.2 0 0 0 0.1-0.2 0.6-0.3 1.1v0.2q0 0.1 0 0.2 0 0 0 0-0.3 1.5-0.5 2.9 0 0 0 0 0 0 0 0 0 0 0 0 0 0 0 0c0 0.1-0.4 2.7-1.3 5.2-1.2 3.4-2.9 5.2-4.8 5.2-2.6-0.1-3.1-2.2-3.5-4.1-0.2-1.1-0.4-2-1-2.3q-0.5-0.2-1.1 0.1-1.5 0.7-2.4 0.2c-1.5-0.7-2.1-3.7-2.7-6.9v-0.1-0.1q-0.2-1-0.5-2.1c-2.7-17.3 1.2-34.9 2.9-41.7q0.1-0.2 0.1-0.3l0.1-0.2c0.3-1.4 0.9-5.3 1.5-10q0.1 0 0.1-0.1 0 0 0.1 0.1c4.4 3.1 5.5 13.1 6.5 22z"/><path class="a" d="m75.4 141.2q0.1-0.4 0.2-0.7c1.1 0.3 1.6 1 2.4 2.4-0.1 2.5-0.6 6.2-0.9 9.4q-0.2 1.1-0.3 2.2c-0.3 2.5-1.4 5.6-3.7 7.5q-0.1 0-0.1 0.1 0 0-0.1 0c-1-11.2 1.5-18.1 2.5-20.9z"/><path class="a" d="m122.2 142.9c0.9-1.4 1.4-2.1 2.4-2.4q0.1 0.3 0.3 0.7c1 2.8 3.4 9.7 2.4 20.9q0 0-0.1-0.1c-2.3-1.9-3.4-5-3.7-7.5q-0.1-1.1-0.3-2.2c-0.4-3.2-0.8-6.9-1-9.4z"/><path class="a" d="m116.8 145.7q-0.2-0.1-0.4-0.1c-1-0.4-2-1-2.9-1.8 0.1 1 0 2.7-0.5 6.9-1.2 9-0.4 10.2 0.5 11.4 0.3 0.4 0.6 0.9 0.8 1.6q0 0 0.1 0.1l0.1-0.1c2.1-1.7 3.8-3.1 3.5-7.6-0.1-2.7-0.6-5.9-0.9-8.6q-0.2-1-0.3-1.8z"/><path class="a" d="m86.7 143.8c-0.8 0.8-1.8 1.4-2.8 1.8q-0.2 0-0.5 0.1-0.1 0.8-0.2 1.8c-0.4 2.7-0.8 5.9-1 8.7-0.2 4.4 1.5 5.8 3.6 7.5q0 0 0.1 0.1 0 0 0 0 0 0 0 0 0-0.1 0-0.1c0.3-0.7 0.6-1.2 0.9-1.6 0.8-1.2 1.7-2.4 0.5-11.4-0.5-4.2-0.7-5.9-0.6-6.9z"/><path class="c" d="m101.4 37.8c2.9-0.1 4.9 0.4 7.8 1.3 0.2 0.1 0.3 0.3 0.2 0.4 0 0.2-0.1 0.3-0.3 0.3q0 0-0.1 0c-2.8-0.8-4.8-1.3-7.6-1.3-0.6 0-1-0.4-1.3-0.9-0.2 0.5-0.6 0.9-1.2 0.9-2.9 0-4.8 0.5-7.6 1.3q-0.1 0-0.1 0c-0.2 0-0.3-0.1-0.4-0.3 0-0.1 0.1-0.3 0.3-0.4 2.9-0.9 4.8-1.4 7.8-1.3 0.8 0 0.8-1.4 0.8-3.4 0-0.2 0.2-0.4 0.4-0.4q0 0 0 0 0 0 0 0 0 0 0 0 0.1 0 0.1 0c0.2 0 0.3 0.2 0.3 0.4 0 2 0.1 3.4 0.9 3.4z"/><path class="c" d="m94 40.1l-0.3 0.1c-0.1 0-0.3-0.1-0.4-0.3 0-0.1 0.1-0.3 0.3-0.4l0.2-0.1c1.1-0.3 3-0.7 4.6-0.5 0.9 0.2 1.5 0.6 1.7 1.1 0.3-0.5 0.8-0.9 1.8-1.1 1.6-0.2 3.5 0.2 4.6 0.5l0.2 0.1c0.2 0.1 0.3 0.2 0.3 0.4-0.1 0.2-0.3 0.3-0.5 0.3l-0.2-0.1c-1.1-0.3-2.8-0.7-4.3-0.5-1.2 0.2-1.5 0.9-1.5 2.2 0 0.2-0.1 0.4-0.3 0.4q0 0-0.1 0 0 0 0 0c-0.2 0-0.4-0.2-0.4-0.4 0-1.3-0.2-2-1.5-2.2-1.4-0.2-3.2 0.2-4.2 0.5z"/><path class="c" d="m98.3 49.8c-1.6 0-3.5 0.2-4.6 0.3-0.2 0.1-0.4-0.1-0.4-0.3 0-0.2 0.1-0.4 0.3-0.4 1.1-0.1 3.1-0.3 4.7-0.3 1 0 1.6 0.4 1.8 0.9 0.3-0.5 0.8-0.9 1.8-0.9 1.7 0 3.6 0.2 4.8 0.3 0.2 0 0.3 0.2 0.3 0.4 0 0.2-0.2 0.4-0.4 0.3-1.2-0.1-3-0.3-4.7-0.3-1.2 0-1.4 0.6-1.4 2.4 0 0.2-0.1 0.4-0.3 0.4q0 0 0 0-0.1 0-0.1 0 0 0 0 0 0 0 0 0c-0.2 0-0.4-0.2-0.4-0.4 0-1.8-0.2-2.4-1.4-2.4z"/><path class="c" d="m99.7 65.1c0-0.2 0.2-0.4 0.4-0.4 0.3 0 0.4 0.2 0.4 0.4v13.5c0 0.2-0.1 0.4-0.4 0.4-0.2 0-0.4-0.2-0.4-0.4z"/><path class="c" d="m108.5 48.4h-0.3c-3 0-5.8 0.1-7.2-0.7-0.4-0.2-0.5-0.6-0.5-1.3q0-0.4 0-0.9 0-0.2 0-0.3v-0.1q0-0.5 0-1.1c0-0.2-0.1-0.3-0.3-0.3q0 0-0.1 0 0 0 0 0 0 0 0 0 0 0 0 0c-0.2 0-0.4 0.1-0.4 0.3q0 0.6 0.1 1.2 0 0.1 0 0.3 0 0.5 0 0.9c-0.1 0.7-0.2 1.1-0.5 1.3-1.4 0.8-4.3 0.7-7.3 0.7h-0.3c-0.2 0-0.3 0.1-0.3 0.3 0 0.2 0.1 0.4 0.3 0.4h0.3 0.1q1.1 0 2.1 0c2.3 0 4.2-0.1 5.4-0.8q0.4-0.2 0.5-0.5 0.2 0.3 0.5 0.5c1.3 0.7 3.2 0.8 5.5 0.8q1 0 2.1 0h0.1 0.3c0.1 0 0.3-0.2 0.3-0.4 0-0.2-0.2-0.3-0.4-0.3z"/><path class="c" d="m105.7 58.1c0.7 0 1.4-0.1 2.5-0.1 0.2 0 0.4 0.1 0.4 0.3 0 0.2-0.2 0.4-0.4 0.4-1 0.1-1.8 0.1-2.5 0.2-0.9 0-1.6 0.1-2.7 0.1q-0.5 0-1.1 0c-1-0.1-1.5-0.4-1.8-1.1-0.2 0.7-0.8 1-1.7 1.1q-0.6 0-1.2 0c-1 0-1.7-0.1-2.6-0.1-0.7-0.1-1.5-0.1-2.6-0.2-0.2 0-0.3-0.2-0.3-0.4 0-0.2 0.1-0.3 0.3-0.3 1.2 0 2 0.1 2.7 0.1 1.1 0.1 2 0.2 3.7 0.1 1.1 0 1.3-0.2 1.3-3.5 0-0.2 0.2-0.3 0.4-0.3q0 0 0 0 0 0 0.1 0 0 0 0 0c0.2 0 0.3 0.1 0.3 0.3 0 3.3 0.3 3.5 1.4 3.5 1.7 0.1 2.6 0 3.7-0.1z"/><path class="c" d="m106.6 59.3c-1.2-0.1-4.4 0.2-5.5 0.5-0.5 0.1-0.8 0.4-1 0.7-0.2-0.3-0.5-0.6-0.9-0.7-1.2-0.3-4.3-0.6-5.6-0.5-0.2 0-0.3 0.1-0.3 0.3 0 0.2 0.2 0.4 0.4 0.4 1.1-0.1 4.2 0.2 5.3 0.5 0.6 0.1 0.7 0.7 0.8 1.5q0 0.4 0 0.8v0.2c0 0.2 0.1 0.3 0.3 0.3 0.2 0 0.4-0.1 0.4-0.3v-0.2q0-0.4 0-0.8c0-0.8 0.2-1.4 0.8-1.5 1-0.2 4.1-0.6 5.3-0.5 0.2 0 0.4-0.2 0.4-0.4 0-0.2-0.2-0.3-0.4-0.3z"/><path class="c" d="m90.8-32.7v-1-0.7l0.6-0.3h1l0.3-1h1l0.6 0.3 1-0.3 0.7-0.3h1l2.6 0.3 4.2 0.7 3.3 1.6 2.9 3 0.7 2.3v2.6l-0.4 2.9v1.7l-0.6 0.3-0.7-1.6c0-0.7 0-2.3-0.3-3.7-0.2-1.3-1.2-3.1-1.6-3.9h-1.3-1l-3.9 1.3h-5.9l-1.3-0.6h-1.3l-1.3 1.6-0.7 2v2.9 2.3l-0.3 0.3-1-2.6-0.3-3.3 0.7-4.5 0.6-1z"/><path fill-rule="evenodd" class="c" d="m166.1 78.7c1.1 2.1 1.1 2.1 1.1 3.2 0 0.4 0.1 1 0.2 1.9 0.4 3.3 0.3 4.5 0.3 5.2v0.1c-0.1 0.6-1 3.8-1.1 4.1 0 0.2-0.1 0.3-0.3 0.3 0 0-1 0.1-1.7-0.6q-0.3-0.4-0.4-1c-0.3 0-0.8-0.1-1.2-0.4q-0.5-0.5-0.3-1.5c0.1-0.9 0.1-1.4 0-2.1 0-0.4-0.1-0.9-0.1-1.6 0-0.6-0.1-0.9-0.3-1.3-0.4-0.7-0.8-1.6-0.6-3.5q-0.1-0.2-0.3-0.3c0.1 1.2 0.1 3.6-0.8 4.6q-0.4 0.5-1 0.5c-2 0.1-2.1-1.8-2.2-3.9q0-0.8-0.1-1.7c-0.2-1.7-0.5-2.6-0.9-3.2-0.7-0.8-1.3-2.6-0.1-4.3 0.1-0.1-0.1-0.6-0.4-1.2q0 0 0 0c-0.4-0.7-0.8-1.4-1.4-2.1-1.6-1.7-2.9-2.7-4.1-3.6-1.8-1.4-3.5-2.7-6-5.8-2.7-3.4-3.5-5-4.3-6.8-0.5-1-1-2-1.9-3.5-1.6-2.4-8.2-11.2-9-12q-0.2-0.1-0.3-0.2 0-0.1-0.1-0.1c-0.7-0.7-1.9-1.8-2.8-3.4-0.4 2-1.7 6.4-5.1 12.9-1.9 3.7-1.3 7.7-0.8 11.5v0.1c0.1 1 0.3 2 0.4 3 0.1 1.6 0.3 3.6 0.6 5.8q0 0 0 0 0 0 0 0 0 0 0 0 0 0.2 0 0.3 0 0.1 0.1 0.2 0 0.1 0 0.1c0.5 4.4 1.2 9 1.6 10.5q0 0.1 0.1 0.4c1.9 7.4 5.6 24.7 2.9 41.9q0 0 0 0.1 0 0 0 0 0 0 0 0.1-0.6 4-1.7 7.9c0 4 0.3 5 0.5 5.8 0.1 0.3 0.2 0.5 0.2 0.9 0.2 0.7 0.2 1.3 0.2 1.8v0.1c0 0.6 0.1 1.2 0.2 2 0.1 0.2 0.2 0.6 0.4 1.1 1.1 3.3 4.3 12.1 1.7 26.9-0.2 1.5-0.3 3.1-0.5 4.7v0.1c-0.5 4.1-1 8-0.5 10.5 0.3 2.1 0.5 3 0.5 4.2 0.3 0.8 1.7 3.1 2.5 4.4l0.1 0.2q0.4 0.5 0.6 0.9c0.2 0.3 0.3 0.5 0.3 0.7 0.2 0.4 0.3 0.6 1.2 1.4q0.3 0.2 0.6 0.4c1.3 1.1 3 2.4 3.8 4.3 0.5 1.2 0.4 1.9 0.1 2.3q-0.3 0.4-0.8 0.5c0 0.2-0.1 0.4-0.3 0.6-0.1 0.1-0.3 0.3-0.6 0.3-0.1 0.3-0.4 0.6-0.7 0.9q-0.5 0.2-1 0.1c-0.2 0.3-0.7 0.7-1.2 0.7q-0.6 0.1-1.2-0.3c-0.4 0.3-1.1 0.8-2.1 0.8q-0.1 0-0.3 0-1.7-0.3-3-2.5c-0.7-0.2-3.3-1.3-3.1-4.2 0-0.6-0.6-1-1.9-1.7l-0.2-0.1c-1.5-0.9-2.4-1.7-1.6-6.3 0.1-1.1 0-2.3-0.1-2.7-0.3-0.3-0.9-1.2-0.7-4.1 0.3-3.4 0.6-6.6-3.6-20.1-0.2-0.7-0.4-1-0.7-1.4-0.9-1.3-1.9-2.7-0.6-11.9 0.7-6.7 0.7-6.8 0-8q-0.2-0.3-0.5-1-0.2-0.2-0.3-0.5l-0.1-0.1q0 0 0 0-0.2-0.4-0.5-0.9c-1.2-2.1-2.7-4.7-3.2-10q-0.2-3.5-0.9-7-0.1-0.7-0.2-1.4-0.7-3.2-1.7-6.4c-0.2-0.7-0.5-1.7-1-2.9-1.3-3.8-3.4-9.4-3.6-14q-0.1-1.1-0.1-2c0-0.9 0-1.8-0.1-2.3 0 0.5-0.1 1.4-0.1 2.3q0 0.9 0 2c-0.3 4.6-2.3 10.2-3.7 14-0.4 1.2-0.8 2.2-1 2.9q-1 3.2-1.6 6.4-0.1 0.7-0.3 1.4-0.6 3.5-0.9 7c-0.4 5.3-2 7.9-3.2 10q0 0.1-0.1 0.2-0.2 0.4-0.4 0.7 0 0 0 0v0.1q-0.2 0.3-0.3 0.5-0.3 0.7-0.6 1c-0.6 1.2-0.7 1.3 0.1 8 1.2 9.2 0.3 10.6-0.6 11.9-0.3 0.4-0.6 0.8-0.8 1.4-4.2 13.5-3.9 16.7-3.6 20.1 0.2 2.9-0.4 3.8-0.7 4.1 0 0.4-0.2 1.6-0.1 2.7 0.8 4.6 0 5.4-1.6 6.3l-0.2 0.1c-1.2 0.7-1.9 1.1-1.9 1.8 0.3 2.8-2.4 3.9-3 4.1q-1.3 2.2-3 2.5-0.2 0-0.4 0c-0.9 0-1.7-0.5-2.1-0.8q-0.5 0.4-1.1 0.3c-0.6 0-1-0.4-1.3-0.7q-0.5 0.1-0.9-0.1c-0.4-0.3-0.6-0.6-0.7-0.9-0.3 0-0.5-0.2-0.6-0.3-0.2-0.2-0.3-0.4-0.4-0.6q-0.5-0.1-0.8-0.5c-0.2-0.4-0.4-1.1 0.1-2.3 0.9-1.9 2.5-3.2 3.8-4.3q0.3-0.2 0.6-0.4c0.9-0.8 1-1 1.2-1.4 0.1-0.2 0.2-0.4 0.4-0.7 0.1-0.3 0.3-0.7 0.6-1.1 0.9-1.3 2.3-3.6 2.6-4.4 0-1.2 0.1-2.1 0.5-4.2 0.4-2.5 0-6.4-0.5-10.5v-0.2c-0.2-1.5-0.4-3.1-0.5-4.7-2.6-14.7 0.5-23.5 1.7-26.8v-0.1c0.2-0.4 0.3-0.8 0.3-1 0.2-0.8 0.2-1.4 0.2-2 0.1-0.6 0.1-1.2 0.2-1.9 0.1-0.4 0.2-0.6 0.2-0.9 0.3-0.8 0.5-1.8 0.6-5.8q-1.1-3.9-1.8-7.9 0-0.1 0-0.1 0-0.1 0-0.1c-2.7-17.2 1-34.5 2.9-41.9q0.1-0.3 0.1-0.4c0.4-1.5 1.1-6.1 1.7-10.5q0 0 0-0.1 0-0.2 0.1-0.5 0 0 0 0 0 0 0 0 0-0.1 0-0.1c0.2-2.1 0.5-4.1 0.6-5.7 0.1-1 0.2-2.1 0.4-3.1 0.5-3.8 1-7.8-0.9-11.5-3.4-6.5-4.6-10.9-5.1-12.9-0.8 1.6-2 2.7-2.8 3.4q-0.2 0.2-0.3 0.3c-0.8 0.8-7.4 9.6-9.1 12-0.9 1.4-1.4 2.5-1.9 3.5-0.8 1.8-1.6 3.4-4.3 6.8-2.5 3.1-4.2 4.4-5.9 5.8-1.3 0.9-2.6 1.9-4.2 3.6-1.1 1.4-1.9 3-1.7 3.3 1.1 1.7 0.6 3.5-0.1 4.3-0.5 0.6-0.8 1.5-1 3.2q0 0.8-0.1 1.6v0.1c-0.1 2.1-0.1 4-2.1 3.9q-0.6 0-1.1-0.5c-0.9-1-0.9-3.4-0.8-4.6q-0.1 0.1-0.3 0.3c0.2 1.9-0.2 2.8-0.5 3.5-0.2 0.4-0.4 0.7-0.4 1.3 0 0.7 0 1.2-0.1 1.6 0 0.7-0.1 1.2 0.1 2.1q0.1 1-0.4 1.5c-0.3 0.3-0.8 0.4-1.1 0.4q-0.2 0.6-0.5 1c-0.6 0.7-1.6 0.6-1.7 0.6-0.1 0-0.2-0.1-0.3-0.3-0.1-0.3-1-3.5-1-4.1v-0.1c-0.1-0.7-0.1-1.9 0.3-5.2 0.1-0.9 0.1-1.5 0.1-1.9 0.1-1.1 0.1-1.1 1.1-3.2l0.1-0.1c1.4-2.6 2-4.5 2.6-6.3 0.5-1.7 1-3.3 2-5.1 0.7-1.5 1.5-3.6 2.4-5.9l0.1-0.1c2.2-5.5 5-12.4 7.7-15.8 1.7-1.9 2.8-3.2 3.7-4.1 1.2-1.2 1.7-1.8 2.2-2.9 4.1-9.6 5.9-11.6 6.9-12.6q0.2-0.2 0.3-0.4 0 0 0 0c0.2-0.2 0.3-0.4 0.4-0.7 1.1-4.3 1.8-5.9 2.2-6.9v-0.1c0.2-0.5 0.4-0.8 0.5-1.4 1.2-3.8 4.1-8.7 11.1-9.8q0.2 0 0.2-0.1 0.2 0 0.4 0 0.1-0.1 0.3-0.1 0.2-0.1 0.6-0.2 0 0 0 0c0.7-0.2 1.5-0.4 1.7-0.4 0.1-0.1 0.4-0.3 0.7-0.5v-0.1c0.6-0.5 1.6-1.2 2.3-1.5 0.3-0.2 1.1-0.5 2-0.9q0.1-0.1 0.3-0.1l0.2-0.1c1.4-0.6 3-1.3 3.6-1.6 0.9-0.4 2.4-1.8 2.8-2.2 0.1-1.6 0.1-6.8 0.1-7.6v-0.1c-0.4-0.9-0.6-2.1-0.6-2.8q-0.8 0.1-1.4-0.3c-0.8-0.6-1.2-2-1.4-4.3q-0.2-2.4 0.8-3.2 0.4-0.3 0.8-0.3-0.1-0.1-0.1-0.1c-0.1-0.2-1-3-1.2-5.4-0.2-2.3 0.6-6.4 2.1-7.5 0.1-0.2 0.1-0.4-0.1-0.6-0.2-0.2-0.3-0.5-0.2-0.8 0.2-0.5 1-0.8 1.9-0.8q0.1 0 0.1 0 0 0 0-0.1 0 0 0 0c0.1-0.2 0.1-0.4 0.4-0.6 0.3-0.3 0.8-0.3 1.7-0.1 0.4 0 0.6-0.1 0.8-0.3 0.3-0.2 0.6-0.4 1.2-0.2 0.7 0 6.3-0.1 9.8 2 3.4 2 6.4 4.6 4.3 14-0.1 0.2-0.2 0.3-0.4 0.2q0 0.2 0 0.3c0.4-0.1 0.9-0.1 1.3 0.3q1.1 0.8 0.9 3.2c-0.2 2.3-0.6 3.7-1.4 4.3q-0.6 0.4-1.4 0.3c-0.1 0.7-0.3 1.9-0.7 2.8v0.1c0 0.8 0.1 6 0.2 7.6 0.4 0.4 1.9 1.8 2.7 2.2 0.6 0.3 2.3 1 3.8 1.6l0.1 0.1q0.2 0.1 0.5 0.2c0.8 0.3 1.5 0.6 1.8 0.8 0.7 0.3 1.6 1 2.3 1.5 0.3 0.3 0.6 0.5 0.7 0.6 0.1 0 1 0.2 1.6 0.4h0.1q0 0 0 0 0 0 0 0 0.1 0.1 0.2 0.1 0.2 0 0.4 0.1 0.4 0.1 0.6 0.2 0.1 0 0.2 0 0 0 0.1 0c7 1.1 9.9 6 11.1 9.8 0.1 0.6 0.3 1 0.5 1.4 0.4 1.1 1 2.7 2.2 7.1 0.1 0.2 0.2 0.4 0.3 0.6q0.1 0 0.1 0 0.1 0.2 0.3 0.4c1 1 2.8 3 6.9 12.6 0.4 1.1 1 1.7 2.2 2.9 0.8 0.9 2 2.2 3.6 4.1 2.8 3.4 5.6 10.3 7.8 15.8 0.9 2.3 1.8 4.5 2.5 6.1 1 1.7 1.5 3.3 2 4.9v0.1c0.6 1.8 1.2 3.7 2.6 6.3v0.1zm-43.8-71.9c-3.6-0.7-7.4 0.3-9.1 0.8 0.8 0.3 2 0.9 3 1.5 2.3 1.5 3.3 2.7 4.6 4.5v0.1c0.6 0.8 1.3 1.7 2.2 2.7 1 1.2 3.1 3.6 5.7 5.4 0.7 0.5 1.9 0.9 3.4 1.3 1 0.1 2.4 0.4 3.9 1.1q0.5 0.2 1 0.5c-1.1-4.1-1.7-5.7-2.1-6.7-0.2-0.5-0.4-0.9-0.5-1.5-1.1-3.6-3.9-8.2-10.5-9.3h-0.1q-0.2-0.1-0.3-0.1-0.2 0-0.6-0.1-0.3-0.1-0.6-0.2zm-11.7 36.9c0-1.1 0-1.6-0.1-2 0-0.3 0-0.6 0-1.1q0-0.2 0.1-0.3 0-0.4 0-0.6c0.2-1.6 0.5-2.6 0.7-3.4 0.3-1 0.5-1.5 0.2-2.2-0.5-1.1-2-1.9-3.4-2.5q-0.5-0.2-1-0.4c-2.1-0.8-4.8-1.3-6-0.5q-0.6 0.4-0.6 1.3c0 0.2-0.1 0.4-0.3 0.4q-0.1 0-0.1 0 0 0 0 0 0 0 0 0c-0.2 0-0.4-0.2-0.4-0.4q0-0.9-0.6-1.3c-1.1-0.8-3.9-0.3-6 0.5q-0.5 0.2-0.9 0.4c-1.5 0.6-3 1.4-3.4 2.5-0.3 0.7-0.2 1.2 0.1 2.2 0.3 0.8 0.6 1.8 0.7 3.4q0.1 0.2 0.1 0.6 0 0.1 0 0.3c0 0.5 0 0.8 0 1.1 0 0.4 0 0.9 0 2 0 2.3 0.4 12.2 0.9 18.8 0.6 10.6 7.1 18.6 9.5 18.6q0 0 0 0 0 0 0.1 0c2.4 0 8.8-8 9.5-18.6 0.4-6.6 0.9-16.5 0.9-18.8zm-12.8-16.9c1.2-1.4 1.9-3.3 1.9-5.3v-10c0-0.2 0-3.6-5.4-4.1-3.2-0.3-4.9 0.2-5.9 0.5q-0.1 0.1-0.2 0.1c-0.2 0.1-2.2 0.7-3.8 1.7-2.2 1.4-3 2.6-4.4 4.3-0.6 0.8-1.3 1.8-2.2 2.9-1 1.2-3.2 3.7-5.9 5.5q-0.4 0.3-1.1 0.6c3 0.1 4.7 1.9 6.1 3.6q0.3 0.3 0.6 0.7 0 0 0 0l0.1 0.1c3.8 3.9 9.4 5.2 14.3 3.5q0.5-0.2 0.9-0.3 2.9-1.3 5-3.8zm4.1 0.5c-0.8-1-1.4-2.1-1.8-3.4-0.3 1.2-0.9 2.4-1.8 3.4q-1.1 1.4-2.6 2.4c1.4-0.2 2.9-0.3 3.8 0.4q0.4 0.2 0.6 0.6 0.2-0.4 0.6-0.6c0.9-0.7 2.4-0.6 3.8-0.4q-1.4-1-2.6-2.4zm-12.5 4.9q-0.9 0.2-1.8 0.2c-2.3 0-4.6-0.6-6.6-1.6 1.1 1 2.2 1.9 3.2 2.8 1.8 1.6 3.4 3 4.4 4.1q-0.2-0.7-0.4-1.2c-0.3-1-0.5-1.8-0.1-2.7 0.3-0.6 0.7-1.1 1.3-1.6zm22.7 1.6c0.5 0.9 0.2 1.7-0.1 2.7q-0.2 0.5-0.4 1.2c1-1.1 2.6-2.5 4.4-4.1 1.1-0.9 2.2-1.8 3.2-2.8-2 1-4.2 1.6-6.5 1.6q-1 0-1.9-0.2c0.6 0.5 1.1 1 1.3 1.6zm-4.7-3.2q0.5 0.1 1 0.3c4.9 1.7 10.5 0.4 14.2-3.5q0 0 0.1-0.1 0 0 0 0 0.1 0 0.1 0 0 0 0 0 0.3-0.4 0.6-0.7c1.4-1.7 3.1-3.5 6.1-3.6q-0.7-0.3-1.2-0.6c-2.7-1.8-4.8-4.3-5.8-5.5-1-1.1-1.7-2-2.3-2.8v-0.1c-1.3-1.7-2.2-2.9-4.3-4.3-1.6-1-3.6-1.6-3.9-1.7q-0.1 0-0.2-0.1c-0.9-0.3-2.7-0.8-5.8-0.5-5.4 0.5-5.5 3.9-5.5 4.1v10c0 2 0.7 3.9 1.9 5.3q2.1 2.5 5 3.8zm3.9-29.1c-0.7-0.3-1.9-1.3-2.5-1.9v4.1c0 2 1.1 2.8 3.3 3.5 0.7-0.2 4-1.4 7.7-1.4q0 0-0.1 0 0-0.1-0.1-0.1v-0.1c-0.7-0.5-1.5-1.1-2.1-1.4-0.4-0.2-1.3-0.6-2.3-1-1.5-0.6-3.3-1.3-3.9-1.7zm-20.3-33.9c-1.2 0.8-2.1 4.6-1.9 6.9 0.2 1.7 0.7 3.7 1 4.7 0-1.1 0-2.6 0-3.7-0.1-1.6 0.7-3.9 1.9-4.7 0.7-0.4 1.4-0.5 2-0.1 2.1 1 8 0.6 11.8-1q0.7-0.2 1.2 0.2c1.3 0.8 2.1 3.6 2.3 5.9 0.2 1.6 0.3 2.6 0.5 3.2 1.8-8.6-0.8-10.9-4.1-12.8-3.5-2.1-9.4-1.9-9.5-1.9q0 0-0.1 0c-0.3-0.1-0.3-0.1-0.6 0.1-0.2 0.2-0.6 0.4-1.3 0.4q0 0-0.1 0c-1-0.2-1.1-0.1-1.1-0.1q0 0.1-0.1 0.1 0 0.1 0 0.1c0 0.2 0 0.7-0.8 0.7-0.8 0-1.2 0.3-1.2 0.4 0.5 0.4 0.4 1.1 0.3 1.4q-0.1 0.1-0.2 0.2zm0.1 19.8q0.2 0 0.3 0.1 0.1 0.1 0.2 0.3c0 0 0.1 1.9 0.6 3q0 0 0 0.1 0 0 0 0.1c0 0 0.2-0.1 0.2 0 0.6 0.9 2.8 3.6 7.7 4.4 4.9-0.8 7.2-3.5 7.8-4.5 0-0.1 0.1 0.1 0.1 0q0-0.1 0-0.1c0.6-1.1 0.7-3 0.7-3q0-0.2 0.1-0.3 0.2-0.1 0.3-0.1c0.6 0.2 0.9 0.1 1.2-0.1 0.6-0.5 1-1.7 1.2-3.8 0.1-1.6-0.3-2.3-0.6-2.5-0.4-0.4-0.9-0.2-0.9-0.2-0.2 0-0.4-0.1-0.5-0.2-0.3-0.4-0.6-1.4-0.9-4.7-0.2-2.4-1.1-4.8-2-5.4q-0.2-0.2-0.5-0.1c-4.1 1.6-10.1 2.1-12.4 0.9q-0.7-0.3-1.3 0.1c-1 0.6-1.7 2.7-1.6 4.1 0.1 1.8 0 4.5 0 4.9q0 0 0 0 0 0.2-0.2 0.3-0.1 0.1-0.3 0.1c-0.1 0-0.5-0.2-0.9 0.2-0.4 0.2-0.7 0.9-0.6 2.5 0.1 2.1 0.5 3.3 1.1 3.8 0.3 0.2 0.7 0.3 1.2 0.1zm1.1 8.9v7.4c0 1.4-0.5 2.3-1.3 3 0.9-0.1 2.1-0.1 3.5 0 3.8 0.4 5.2 2.1 5.7 3.4 0.6-1.3 2-3 5.8-3.4 1.4-0.1 2.5-0.1 3.5 0-0.8-0.7-1.3-1.6-1.3-3v-7.4c-0.1-1.6-0.1-3.5-0.1-4.5-0.9 1.2-3.3 3.7-7.8 4.5q0 0 0 0-0.1 0-0.1 0 0 0 0 0 0 0 0 0 0 0 0 0 0 0 0 0c-3.2-0.6-5.3-2-6.5-3.1-0.6-0.5-1.1-1-1.4-1.4 0 1 0 2.9 0 4.5zm-9.5 7.9c-0.6 0.3-1.4 1-2.1 1.5q0 0-0.1 0.1 0 0-0.1 0c3.7 0 7.1 1.2 7.7 1.4 2.3-0.7 3.3-1.5 3.3-3.5v-4.1c-0.6 0.6-1.7 1.6-2.5 1.9-0.6 0.4-2.3 1.1-3.8 1.7-1 0.4-2 0.8-2.4 1zm-16.8 12.3c-0.2 0.6-0.3 1-0.6 1.5-0.4 1-1 2.6-2.1 6.7q0.5-0.3 1-0.5c1.6-0.7 3-1 3.9-1.1 1.6-0.4 2.7-0.8 3.4-1.3 2.7-1.8 4.7-4.2 5.7-5.4 1-1.1 1.6-2 2.2-2.8h0.1c1.3-1.8 2.2-3 4.5-4.5 1.1-0.6 2.2-1.2 3.1-1.5-1.7-0.5-5.5-1.5-9.1-0.8h-0.1q-0.3 0.1-0.6 0.2-0.4 0.1-0.6 0.1-0.1 0-0.3 0.1c-6.7 1.1-9.4 5.7-10.5 9.3zm-23.7 64.1c0.2-1.9 0.6-2.8 1.1-3.5 0.6-0.7 1-2.2 0.1-3.5-0.2-0.3-0.2-0.7 0-1.2q-0.7 0.2-1.3 0.2-0.9 0-1.7-0.4c-0.9-0.4-1.6-1.4-2-2.5-0.4 0.9-0.7 1.8-1 2.7v0.1c-0.5 1.8-1.2 3.8-2.6 6.5q-1 2-1.1 2.9c0 0.4 0 1-0.1 2-0.4 3.3-0.4 4.4-0.3 5v0.1c0 0.4 0.5 2.4 0.9 3.8 0.3-0.1 0.6-0.2 0.9-0.4q0.5-0.6 0.3-1.8c-0.4-2-0.3-2.4-0.1-3.3 0.1-0.4 0.2-0.9 0.4-1.9 0.2-0.8 0.5-1.2 0.8-1.5 0.3-0.5 0.7-0.9 1.1-2.2q0 0 0-0.1c0.6-1.1 1.5-1.4 1.5-1.4q0.2 0 0.3 0.1 0.2 0.1 0.2 0.3c-0.1 1-0.2 3.8 0.6 4.8q0.2 0.2 0.5 0.2c1.2 0 1.3-0.9 1.4-3.3q0-0.8 0.1-1.7zm-4.9 4c0.2-0.4 0.5-0.8 0.5-1.5-0.2 0.6-0.5 0.9-0.8 1.2-0.3 0.4-0.5 0.6-0.6 1.3-0.2 0.9-0.3 1.5-0.4 1.9-0.2 0.8-0.3 1.1 0.1 2.9q0 0.4 0 0.8c0.2 0 0.5-0.1 0.6-0.2q0.3-0.3 0.2-0.9c-0.2-1-0.1-1.6-0.1-2.3 0.1-0.4 0.1-0.8 0.1-1.5 0-0.7 0.2-1.2 0.4-1.7zm22.2-31.2c0.5-1 1-2.1 1.9-3.6 0.5-0.7 1.3-1.8 2.3-3.2-1.5 1-2.9 1.4-4 1.4q-1.1 0-1.9-0.4c-1.6-0.8-3.6-3-2.1-9.4q-0.1 0.2-0.1 0.4c-0.6 1.3-1.2 2-2.4 3.2-0.9 0.9-2 2.1-3.6 4.1-2.7 3.2-5.5 10-7.7 15.6-0.9 2.3-1.8 4.4-2.5 6q-0.3 0.6-0.6 1.1c0.3 1.4 1 2.5 1.9 3 0.9 0.4 2 0.4 3.1-0.1 0.5-0.8 1.1-1.7 1.4-2.1q0 0 0 0c1.6-1.7 2.9-2.7 4.2-3.7 1.8-1.3 3.4-2.6 5.9-5.7 2.6-3.3 3.4-4.9 4.2-6.6zm14.5-20.1q0.1-0.1 0.2-0.2 0.2-0.8 0.4-1.7c0.2-1.4 0.8-5.1-1.2-6.8-1.1-0.9-2.7-0.9-4.3-0.8h-0.1c-0.4 0-1.5 0.1-2.8 0.5q0 0 0 0 0 0 0 0-0.8 0.2-1.7 0.6-1 0.4-1.9 1.1-0.2 0.1-0.3 0.3c-0.6 0.6-1.6 1.6-3.3 4.9-5.2 11.6-2.8 14.9-0.9 15.8 1.7 0.9 4.8 0.3 8.1-3.7q0 0 0 0c2-2.7 3.9-5.2 4.4-5.6q0.1-0.1 0.2-0.2 0.1-0.1 0.1-0.1c1-0.9 2.3-2.1 3.1-4.1zm6.9 25.7c-0.2 1.1-0.3 2.1-0.4 3.1-0.1 1.4-0.3 3.4-0.6 5.5 1.9 0.3 4.1-0.3 5.4-1.5 1-1 3.3-4.1 2.3-10.8-0.4-3.3 0.2-6.9 0.7-10 0.4-2 0.7-3.7 0.7-5q-0.1-0.3-0.1-0.5c-0.2-1.3-2.5-3.3-5.2-5.6-2.1-1.9-4.5-3.9-6.6-6.2q-0.4-0.5-0.8-1-0.6-0.7-1.3-1.3c0.9 2 0.5 4.6 0.3 5.8q-0.2 1.1-0.5 2.1c0.2 1.1 1.2 5.9 5.2 13.5 1.9 3.9 1.4 8 0.9 11.9zm5 104.7c0.2-0.7 0.6-1.2 0.9-1.6 0.8-1.2 1.7-2.4 0.4-11.4-0.4-4.2-0.6-5.9-0.5-6.9-1.3 1.3-2.9 2-4.4 2h-0.1c-1.7 0-3.1-1-4.1-2.7-0.9-1.6-1.4-2.3-2.5-2.6q-0.1 0.3-0.3 0.7c-1.1 3.3-4.2 12-1.7 26.5 0.2 1.7 0.4 3.3 0.6 4.9v0.1c0.5 4.1 1 8.1 0.5 10.6-0.4 2.2-0.5 3.1-0.5 4.2q-0.1 0-0.1 0.1c-0.2 0.9-1.6 3.1-2.6 4.6l-0.1 0.2q-0.3 0.5-0.5 0.8c-0.2 0.3-0.3 0.5-0.3 0.7-0.3 0.5-0.4 0.8-1.5 1.7q-0.2 0.2-0.5 0.4c-1.4 1.1-2.9 2.2-3.7 4.1-0.4 0.9-0.2 1.3-0.1 1.5 0.1 0.2 0.4 0.2 0.5 0.2 0.2 0 0.4 0.2 0.4 0.4 0 0.1 0 0.3 0.2 0.4q0.1 0.2 0.3 0.1c0.2 0 0.3 0.2 0.4 0.3 0 0 0.1 0.5 0.4 0.7q0.3 0.1 0.7 0c0.1 0 0.3 0 0.4 0.2 0 0 0.4 0.5 0.9 0.5q0.4 0.1 0.8-0.3c0.1-0.1 0.4-0.1 0.5 0 0 0 0.9 0.9 2.1 0.8q1.4-0.2 2.5-2.2 0.1-0.2 0.2-0.2c0.1 0 2.9-0.9 2.7-3.5 0-1.1 1-1.7 2.3-2.4l0.2-0.1c1.2-0.7 2-1.2 1.2-5.6-0.2-1.4 0.1-3 0.1-3q0.1-0.2 0.2-0.3 0 0 0 0c0.1 0 0.7-0.6 0.5-3.5-0.3-3.5-0.6-6.8 3.6-20.4zm2.2-23q0.3-0.4 0.6-0.9c1.1-1.9 2.4-4.1 2.9-8.5-1 2.8-2.7 5.8-5.4 5.8h-0.1c-3 0-3.6-2.7-4-4.6-0.2-0.8-0.4-1.6-0.7-1.8q-0.2-0.1-0.6 0.1-1.7 0.8-2.9 0.2-0.6-0.3-1-0.9c-0.1 3.5-0.4 4.4-0.6 5.2-0.1 0.3-0.1 0.5-0.2 0.8-0.1 0.7-0.1 1.2-0.2 1.8 0 0.6 0 1.2-0.1 1.9 1.3 0.4 2 1.3 3 3 0.8 1.5 2 2.3 3.4 2.3 2.1 0 4.3-1.5 5.9-4.2q0 0 0-0.1 0 0 0 0zm4.9-19.2q0-0.1 0-0.2c1.1-6.3 0.5-7-0.7-8.5-1.3-1.6-3.3-4-5-13.2-0.4-2.5-0.8-5.4-1.1-8.6-1-8.9-2.1-19-6.5-22-0.5 4.1-1.2 8.4-1.6 10v0.1q0 0.1-0.1 0.4c-1.9 7.3-5.6 24.5-2.9 41.7q0.3 1.1 0.5 2.2c0.6 3.2 1.2 6.2 2.6 6.9q0.9 0.4 2.3-0.2 0.7-0.4 1.2-0.1c0.6 0.3 0.8 1.2 1.1 2.3 0.4 1.9 0.9 4 3.4 4 4.5 0 6-10.1 6-10.2q0 0 0-0.1 0 0 0 0 0.2-1.4 0.4-2.9 0 0 0 0 0.1-0.1 0.1-0.1 0-0.1 0-0.1 0.1-0.7 0.3-1.4zm6.3-23.2q0-1.1 0-2c0-1.4 0-2.3 0.2-2.8-3.1-0.4-4.5-4.2-7-12.6-2.7-9.3-9.8-12-12.6-12.7 4.8 3.2 6 13.5 7 22.7v0.1c0.3 3.1 0.7 6.1 1.1 8.5 1.7 9 3.6 11.3 4.8 12.9 0.9 1 1.5 1.7 1.5 3.6q0.1-0.5 0.3-1c0.2-0.7 0.6-1.6 1-2.7v-0.3c1.4-3.6 3.4-9.2 3.7-13.7zm0.8-5.5q0 0 0 0c2.9 0 4.2-2.9 6.9-12.1 2.3-7.8 7.6-11.1 11.1-12.5-1.4-0.2-2.7-0.8-3.6-1.7-1.2-1-3.7-4.3-2.6-11.4 0.4-3.1-0.2-6.5-0.7-9.5-0.1 3.9-0.5 11.5-0.8 16.9-0.7 10.6-7.2 19.3-10.3 19.3q0 0 0 0 0 0 0 0 0 0 0 0c-3.1 0-9.6-8.7-10.3-19.3-0.3-5.4-0.7-13-0.8-16.9-0.6 3-1.1 6.4-0.7 9.5 1.1 7.1-1.4 10.4-2.6 11.4-0.9 0.9-2.2 1.5-3.6 1.7 3.5 1.4 8.8 4.7 11.1 12.5 2.7 9.2 4 12.1 6.9 12.1q0 0 0 0 0 0 0 0zm7.3 19.6c1.2-1.6 3.1-3.9 4.8-12.9 0.4-2.4 0.8-5.4 1.1-8.6 1-9.2 2.2-19.5 7-22.7-2.8 0.7-9.9 3.4-12.6 12.7-2.5 8.4-3.9 12.2-7 12.6 0.2 0.5 0.2 1.4 0.2 2.8q0 0.9 0 2c0.3 4.5 2.3 10.1 3.7 13.8v0.1c0.4 1.1 0.8 2.1 1 2.8q0.2 0.5 0.3 1c0-1.9 0.6-2.6 1.5-3.6zm17.4 28.6q-0.1-0.3-0.2-0.6c-1.1 0.4-1.6 1-2.5 2.7-1 1.7-2.4 2.6-4.1 2.6h-0.1c-1.5 0-3.1-0.7-4.4-2 0.1 1-0.1 2.7-0.5 6.9-1.3 9-0.4 10.2 0.4 11.4 0.4 0.4 0.7 0.9 0.9 1.6 4.2 13.6 3.9 16.9 3.6 20.4-0.2 3 0.5 3.5 0.5 3.5q0.2 0.1 0.2 0.3c0 0.2 0.3 1.6 0.1 3-0.8 4.4 0 4.9 1.2 5.6l0.2 0.1c1.3 0.7 2.3 1.3 2.3 2.4-0.2 2.7 2.6 3.5 2.7 3.5q0.1 0 0.2 0.2 1.2 2 2.5 2.2c1.2 0.1 2.1-0.8 2.1-0.8 0.1-0.1 0.4-0.1 0.5 0q0.4 0.4 0.9 0.4c0.5-0.1 0.9-0.6 0.9-0.6 0-0.1 0.2-0.2 0.3-0.2q0.4 0.1 0.7 0c0.3-0.2 0.4-0.7 0.4-0.7 0.1-0.1 0.2-0.2 0.4-0.2q0.2 0 0.3-0.1c0.2-0.2 0.2-0.4 0.2-0.5 0-0.2 0.2-0.3 0.4-0.3 0.1 0 0.4-0.1 0.5-0.3 0.1-0.2 0.3-0.6-0.1-1.5-0.8-1.8-2.3-3-3.7-4.1q0 0-0.1-0.1-0.2-0.2-0.4-0.3c-1.1-0.9-1.2-1.2-1.4-1.7-0.1-0.2-0.2-0.4-0.4-0.6q-0.2-0.4-0.5-0.9l-0.1-0.2c-0.9-1.5-2.4-3.7-2.6-4.6q0-0.1 0-0.1c-0.1-1.1-0.2-2-0.6-4.1-0.4-2.6 0-6.5 0.5-10.7v-0.1c0.2-1.6 0.4-3.2 0.6-4.8 2.5-14.6-0.6-23.3-1.7-26.6q-0.1 0-0.1-0.1zm-0.5-3.2c-0.1-0.6-0.1-1.1-0.2-1.7-0.1-0.4-0.1-0.6-0.2-0.9-0.2-0.8-0.5-1.7-0.6-5.2q-0.4 0.6-1 0.9-1.2 0.6-2.9-0.2-0.4-0.2-0.6-0.1c-0.3 0.2-0.5 1-0.7 1.8v0.1c-0.4 1.9-1 4.5-4 4.5h-0.1c-2.7 0-4.4-2.9-5.4-5.8 0.5 4.4 1.8 6.7 2.9 8.5q0.3 0.5 0.6 1 0 0 0 0 0 0.1 0 0.1c1.6 2.6 3.8 4.2 5.8 4.2h0.1c1.4 0 2.7-0.8 3.5-2.3 0.9-1.7 1.6-2.6 2.9-3-0.1-0.7-0.1-1.3-0.1-1.9zm-2.2-58.8c-0.4-1.6-1.1-5.9-1.6-10-4.4 3-5.5 13.1-6.5 22-0.3 3.2-0.7 6.2-1.1 8.7-1.7 9.1-3.7 11.5-5 13.1-1.2 1.6-1.8 2.2-0.7 8.5v0.2q0.2 0.7 0.3 1.4l0.1 0.2q0 0 0 0.1 0.2 1.4 0.4 2.9 0 0 0 0 0 0 0 0c0 0.1 1.5 10.2 6 10.2h0.1c2.4 0 2.9-2.1 3.3-4 0.3-1.1 0.5-2 1.1-2.3q0.5-0.3 1.2 0.1 1.4 0.7 2.3 0.2c1.4-0.7 2-3.7 2.6-6.9h0.1q0.2-1.1 0.4-2.2c2.7-17.2-1-34.4-2.9-41.7q-0.1-0.3-0.1-0.5zm-2.7-20.1c-0.6-3.9-1.1-7.9 0.9-11.9 3.9-7.6 4.9-12.3 5.1-13.4q-0.3-1.1-0.5-2.2c-0.2-1.1-0.6-3.8 0.3-5.8q-0.7 0.6-1.3 1.4-0.4 0.5-0.8 0.9c-2.1 2.3-4.5 4.4-6.6 6.2-2.7 2.4-5 4.4-5.2 5.6q0 0.3-0.1 0.6c0 1.2 0.3 3 0.7 4.9 0.5 3.2 1.2 6.7 0.7 10-1 6.8 1.3 9.8 2.4 10.8 1.2 1.3 3.4 1.8 5.3 1.5-0.2-2.1-0.5-4.1-0.6-5.5-0.1-1-0.2-2-0.3-3.1zm14.6-15.7c3.3 4.1 6.4 4.6 8.1 3.7 1.9-0.9 4.3-4.2-0.9-15.8-1.7-3.2-2.7-4.3-3.3-4.9q-0.1-0.1-0.3-0.3-0.9-0.6-1.9-1.1-0.9-0.4-1.6-0.6-0.1 0-0.1 0c-1.3-0.4-2.4-0.4-2.8-0.5-1.7 0-3.3-0.1-4.4 0.9-2 1.6-1.4 5.3-1.2 6.7q0.2 0.9 0.4 1.8 0.1 0 0.2 0.1c0.8 2 2.2 3.3 3.1 4.1q0 0.1 0.1 0.1 0.1 0.1 0.2 0.2c0.5 0.5 2.4 3 4.4 5.6zm21 26.2q0.1 0 0.1 0c0.3 0.4 0.9 1.2 1.3 2.1 1.2 0.4 2.3 0.5 3.1 0 0.9-0.4 1.6-1.6 1.9-2.9q-0.3-0.5-0.6-1.1c-0.7-1.6-1.6-3.7-2.5-6v-0.1c-2.2-5.5-5-12.3-7.7-15.6-1.6-1.9-2.7-3.1-3.6-4-1.2-1.3-1.8-2-2.3-3.2q-0.1-0.2-0.2-0.4c1.5 6.3-0.4 8.6-2 9.4q-0.9 0.4-2 0.4c-1.1 0-2.5-0.4-4-1.4 1 1.3 1.8 2.5 2.3 3.1 0.9 1.6 1.5 2.6 1.9 3.7 0.9 1.7 1.6 3.3 4.3 6.6 2.4 3 4 4.3 5.8 5.7 1.3 0.9 2.6 2 4.2 3.7zm11.9 19.6v-0.1c0.1-0.7 0.2-1.8-0.2-5-0.2-1-0.2-1.6-0.2-2q0-0.9-1-2.9l-0.1-0.1c-1.4-2.6-2-4.7-2.6-6.5-0.3-0.9-0.6-1.8-1-2.7-0.4 1.1-1.1 2-2 2.5q-0.7 0.3-1.6 0.3-0.7 0-1.4-0.1c0.2 0.5 0.2 0.9 0.1 1.2-1 1.3-0.5 2.8 0 3.4 0.6 0.7 0.9 1.7 1.1 3.6q0.1 0.9 0.1 1.7c0.1 2.4 0.3 3.3 1.4 3.3q0.3 0 0.6-0.3c0.8-0.9 0.7-3.7 0.6-4.7q-0.1-0.2 0.1-0.3 0.1-0.1 0.3-0.1c0 0 0.9 0.2 1.5 1.4q0 0 0 0c0.4 1.3 0.8 1.8 1.1 2.2 0.4 0.4 0.7 0.8 0.8 1.6 0.2 0.9 0.3 1.5 0.4 1.9 0.2 0.9 0.3 1.2 0 3.2q-0.2 1.3 0.2 1.8c0.3 0.3 0.7 0.4 0.9 0.4 0.4-1.3 0.9-3.3 0.9-3.7zm-2.8 2.2q0-0.4 0.1-0.8c0.3-1.8 0.2-2.1 0-2.9v-0.1c-0.1-0.4-0.2-1-0.4-1.9-0.1-0.6-0.3-0.9-0.6-1.2-0.3-0.3-0.5-0.7-0.8-1.3 0.1 0.8 0.3 1.2 0.5 1.6 0.2 0.4 0.4 0.9 0.4 1.7 0 0.6 0.1 1.1 0.1 1.5 0.1 0.6 0.1 1.2 0 2.3q-0.1 0.6 0.1 0.8c0.2 0.2 0.4 0.2 0.6 0.3z"/></g></svg>