<svg version="1.2" xmlns="http://www.w3.org/2000/svg" viewBox="0 0 200 112" width="200" height="112"><defs><clipPath clipPathUnits="userSpaceOnUse" id="cp1"><path d="m33-67.99h134.21v247.07h-134.21z"/></clipPath></defs><style>.a{fill:#fff}.b{fill:#1570ef}.c{fill:#0d173d}</style><g clip-path="url(#cp1)"><path class="a" d="m124.6 98.3q0.5-1.8 0.9-3.8c3.2-17.6-1.2-39-2.8-43.9-1-2.7-0.9-3.5-0.8-4.3q0-0.1 0-0.1 0-0.3 0-0.7c-0.3-2.4-3-4.8-5.7-6.5 1.1 1.5 1.6 3.5 2.3 5.8v0.1q0.4 1.4 0.8 2.8c1.7 5.4 1.6 9.6-0.5 12.6-2.5 3.6-6.9 4.2-8.7 4.3q-0.3 0.1-0.7 0.1-0.1 0-0.1 0-0.1 0-0.3 0 0 0-0.1 0-0.5 0.1-1 0.1c-0.7 0.1-1.4 0.2-1.7 0.6q-0.4 0.4-0.3 1.2c0.2 3.5-0.5 5-1.3 6.4-0.9 1.8-1.8 3.5-0.4 9.5q0.4 1.5 0.8 3c0.8 3 1.6 5.8 2.3 9.2q0.2 0.1 0.2 0.3c1.5 10 3.1 14.2 5.5 14.2 2.7 0 2.9-4.8 3-7.7 0-1.8 0-2.6 0.6-2.7 0.5-0.1 0.9 0.3 2.3 4 1.2 3 2.1 3.4 2.5 3.3 1.2-0.1 2.3-3.1 3.1-6.3q0-0.8 0.1-1.5z"/><path class="a" d="m95.9 82.5q0 0 0 0c1.4-6 0.5-7.7-0.5-9.5-0.7-1.4-1.5-2.9-1.2-6.4q0-0.8-0.3-1.2c-0.4-0.4-1-0.5-1.7-0.6q-0.1 0-0.1 0-0.5 0-1-0.1-0.3 0-0.5 0 0 0 0 0 0 0 0 0-0.2 0-0.3 0-0.2 0-0.4 0c-1.8-0.2-6.2-0.8-8.7-4.4-2-3-2.2-7.2-0.5-12.6 0.4-1 0.6-2 0.9-2.9 0.6-2.3 1.1-4.3 2.3-5.8-2.8 1.7-5.5 4.1-5.7 6.5q0 0.4 0 0.7 0 0 0 0.1c0.1 0.8 0.1 1.6-0.8 4.3-1.8 5.3-6.7 29.6-2 47.7q0.2 0.7 0.2 1.5c0.8 3.2 1.8 6.2 3 6.3 0.4 0.1 1.3-0.3 2.5-3.3 1.5-3.7 1.9-4.1 2.4-4 0.5 0.1 0.5 0.9 0.6 2.7 0.1 2.9 0.2 7.7 3 7.7 2.4 0 4-4.2 5.4-14.2q0.1-0.2 0.2-0.3c0.7-3.4 1.5-6.2 2.3-9.2q0.5-1.5 0.9-3z"/><path class="a" d="m111 36c-2.5-0.5-5.6-0.4-8 1.3q-2.2 1.7-3 5-0.7-3.3-3-5c-2.3-1.7-5.5-1.8-7.9-1.3 1.2-1.5 1.1-3.7 1-6-0.1-2.5-0.2-5.3 1.2-7.9 4.2-8 6.1-12.8 5.8-17.6 1 2.6 1.7 3.8 2.9 3.8 1.3 0 1.9-1.2 2.9-3.8-0.3 4.8 1.7 9.6 5.9 17.6 1.3 2.6 1.2 5.4 1.1 7.9-0.1 2.3-0.2 4.5 1.1 6z"/><path class="b" d="m99.7 58.1v-12.4c0-3.7-1.1-6.3-3.1-7.8-2.4-1.8-5.8-1.7-8.2-1q-0.5 0.2-1 0.4 0 0 0 0-0.2 0-0.4 0.1 0 0 0 0 0 0 0 0c-3.1 1.5-3.7 4-4.7 7.6l-0.1 0.1c-0.2 0.9-0.5 1.9-0.8 2.8-1.6 5.2-1.5 9.2 0.4 12 2.3 3.3 6.5 3.9 8.1 4q0.2 0 0.3 0.1 0.2 0 0.3 0h0.1q0.3 0 0.6 0 0 0 0 0 0.1 0 0.2 0 0.4 0 0.9 0.1 0 0 0 0c2.4 0.1 4.5 0.1 5.9-1.2 1-0.9 1.5-2.5 1.5-4.8z"/><path class="b" d="m110.1 63.9c1.7-0.1 5.8-0.7 8.1-4 1.9-2.8 2.1-6.8 0.4-12-0.3-1-0.6-2-0.8-2.9-1-3.6-1.7-6.1-4.7-7.6q-0.1 0-0.1 0-0.2-0.1-0.4-0.1 0 0 0 0-0.4-0.2-1-0.4c-2.3-0.7-5.7-0.8-8.1 1-2.1 1.5-3.1 4.1-3.1 7.8v12.4c0 2.3 0.5 3.9 1.5 4.8 1.3 1.3 3.5 1.3 5.9 1.2q0 0 0 0 0 0 0 0 0.5-0.1 0.9-0.1h0.2q0 0 0.1 0 0.1 0 0.1 0 0.1 0 0.2 0 0 0 0.1 0 0 0 0 0 0.1 0 0.1 0 0.2 0 0.3 0 0.2-0.1 0.3-0.1z"/><path class="a" d="m126.5-4.2v-0.1c0.5-2.6 1.1-5.4-0.1-6.2-1-0.4-1.9-1-2.7-1.7-1.5-1.2-2.8-2.2-4.1-3.3h-0.1c-2-1.6-4-3.1-5.8-4.9l-0.1 0.1c-4.1 7.7-6.7 13.8-8.3 18.2q-0.4 1-0.7 1.9 0 0.1-0.1 0.1c-2.1 6.7-0.6 11.4 4.9 21.9 1.5 2.8 1.3 5.6 1.2 8.2-0.1 3-0.2 5.4 2.3 6.6q0.2 0.1 0.4 0.2h0.1c2.5 1 6.2 3.2 8 5.8-1.1-4.7-1.9-13.4-1.8-16.1q0-0.1 0-0.2 0-0.3 0-0.7c0-2.9 0-8.5 2.4-12.2 2.4-3.8 3.9-10.7 4.2-11.7-0.7-1.3-0.2-3.5 0.3-5.9z"/><path class="a" d="m89.4 30c-0.1-2.6-0.2-5.4 1.2-8.2 5.5-10.5 7.1-15.2 4.9-21.8q0-0.1 0-0.1-0.4-0.9-0.7-1.9c-1.7-4.5-4.2-10.6-8.4-18.3-1.9 1.7-3.8 3.2-5.9 4.8v0.1c-1.3 1-2.7 2-4.1 3.2-0.9 0.7-1.8 1.3-2.7 1.7q0 0 0 0c-1.2 0.8-0.7 3.6-0.1 6.2 0.5 2.4 1 4.7 0.3 6 0.2 1 1.8 7.9 4.1 11.7 2.4 3.7 2.4 9.2 2.5 12.2q0 0.5 0 0.9c0 2.7-0.8 11.4-1.9 16.1 1.9-2.6 5.6-4.8 8.1-5.8q0 0 0.1 0 0 0 0 0 0.1-0.1 0.3-0.2 0 0 0 0 0 0 0 0c2.5-1.2 2.4-3.6 2.3-6.6z"/><path class="a" d="m112.2-19.2c-3.7 7.1-6 12.7-7.6 16.9q0 0 0 0-0.4 0.9-0.7 1.8-0.4 1.3-0.8 2.4c-1.4 3.8-2 5.7-3.1 5.7-1 0-1.7-1.9-3-5.7q-0.4-1.1-0.9-2.5 0 0 0 0-0.3-0.7-0.6-1.5 0-0.1 0-0.1 0-0.1-0.1-0.1c-1.5-4.2-3.9-9.8-7.6-16.9 0.5 0.3 1 0.4 1.6 0.4 0.8 0 1.6-0.2 2.6-0.4 1.8-0.3 4.3-0.7 8-0.7 3.8 0 6.2 0.4 8 0.7 1.1 0.2 1.9 0.4 2.6 0.4 0.6 0 1.1-0.1 1.6-0.4z"/><path class="a" d="m119.7-24.7c-3.3 0.5-5.2 2.4-6.3 3.6q-0.1 0.1-0.2 0.2l-0.1 0.1q0 0 0 0.1c-1.4 1.5-2.4 1.3-4.9 0.8-1.9-0.3-4.4-0.8-8.2-0.8-3.8 0-6.3 0.5-8.1 0.8-2.5 0.5-3.6 0.7-4.9-0.8q0 0 0-0.1l-0.1-0.1q-0.1-0.1-0.2-0.2h-0.1c-1-1.2-2.9-3.1-6.2-3.6 0.7-0.4 1.6-1 2.2-1.3 0.4-0.1 1.3-0.5 2.3-0.9 1-0.5 2.1-0.9 3-1.3q0 0 0 0 0 0 0 0c3.9-1.1 8.2-0.9 10.4-0.8q0.4 0.1 0.7 0.1 1 0 2 0 0.3 0 0.7-0.1c2.3-0.1 6.5-0.3 10.5 0.8 0.8 0.4 1.9 0.8 2.9 1.3 1 0.4 1.9 0.8 2.4 0.9 0.6 0.3 1.5 0.9 2.1 1.3q0 0 0.1 0z"/><path class="a" d="m80.2-16.2c2-1.5 3.9-3 5.7-4.7-1.2-1.3-3.5-3.3-7.4-3.2q0 0 0 0-0.1 0-0.1 0c-0.8 0.1-12.5 1.7-15.2 15.5 0.7-0.5 1.7-1 2.8-1.1q0.1 0 0.3 0 0 0 0 0c1.9-0.1 6.3-0.3 9.6-3 1.5-1.2 2.8-2.3 4.1-3.3z"/><path class="a" d="m134.1-9.7c1 0.1 2.1 0.6 2.7 1.1-2.6-13.8-14.3-15.4-15.2-15.5q0 0 0 0c-3.9-0.1-6.2 1.9-7.4 3.2 1.8 1.8 3.7 3.3 5.7 4.8l0.1 0.1c1.3 1 2.7 2.1 4.1 3.3q1.3 1 2.6 1.6c2.7 1.2 5.6 1.4 7 1.4q0.1 0 0.1 0 0.2 0 0.3 0z"/><path class="a" d="m125.8 141.3c2.7-0.1 3.3-5.6 3.6-11-0.1-5.3-1.2-8.9-2.2-12q0 0 0 0 0-0.1 0-0.1 0-0.1 0-0.2-0.1-0.1-0.1-0.2c-0.2-0.5-0.4-0.9-0.7-0.9-0.7-0.2-1.9 0.9-2.9 1.9-1.6 1.6-3.4 3.3-5 2.2-1-0.8-2.3-1-3.3-0.5-1.1 0.5-1.8 1.8-1.8 3.6-0.1 0.1-0.2 0.3-0.3 0.3-0.9 8.5-0.9 11.3-0.3 13.3q0 0 0 0c1.9 4.8 3.8 4.4 4.5 4.3 1.6-0.4 1.9-2.6 2-4.4 0.2-1.5 0.3-2.6 1.2-2.7 0.6-0.1 1.1 0.9 1.8 2.3v0.1c0.9 1.7 2 4 3.4 4z"/><path class="a" d="m87.2 137.6q0 0 0 0c0.6-2 0.7-4.7-0.2-13.2-0.2 0-0.3-0.1-0.3-0.3-0.1-1.8-0.8-3.1-1.9-3.6-1-0.5-2.2-0.3-3.3 0.5-1.5 1.1-3.3-0.6-4.9-2.2-1.1-1-2.2-2.1-2.9-1.9-0.3 0-0.5 0.4-0.7 0.8q-0.1 0.3-0.2 0.6c-1 3-2.1 6.7-2.2 12 0.3 5.4 1 10.9 3.6 11 1.5 0.1 2.7-2.3 3.5-4l0.1-0.1c0.6-1.4 1.1-2.4 1.8-2.3 0.8 0.1 1 1.2 1.1 2.7 0.2 1.8 0.4 4 2.1 4.4 0.6 0.1 2.6 0.5 4.4-4.3q0 0 0-0.1 0 0 0 0 0 0 0 0z"/><path class="a" d="m144.7 11.3c0.7 0.2 1.4 0.4 1.7 0.1 0.1-0.1 0.3-0.6-0.1-2-0.2-0.5-0.3-1-0.4-1.4v-0.1q0 0 0 0 0 0 0-0.1c-0.2-0.6-0.3-1.1-0.6-1.6-0.8-1.4-2-3.9-2.2-4.3q0-0.1 0-0.1 0 0 0 0c-1.5-5.4-5.8-9.2-6-9.4-0.2-0.1-1.6-1.3-3-1.3q-0.1 0-0.3-0.1 0 0-0.1 0c-1.3 0-3.7-0.1-6.1-1 0.5 1.4 0 3.7-0.4 5.9-0.5 2.2-1 4.5-0.4 5.6h0.1l0.1 0.1c1.5 2.5 5.7 9.2 7.4 10.8 0.4 0.4 0.7 0.8 1.1 1.2 3.2 2.9 4.5 3.2 5 3 0.6-0.2 0.7-1.5 0.8-2.7 0-1.2 0.1-2.3 0.8-2.7 0.7-0.5 1.7-0.2 2.6 0.1z"/><path class="a" d="m73.2 1.5c0.6-1.1 0.2-3.4-0.3-5.6-0.5-2.2-0.9-4.5-0.4-5.9-2.5 0.9-4.8 1-6.1 1q-0.1 0-0.2 0.1-0.1 0-0.2 0c-1.4 0-2.8 1.2-3 1.3-0.2 0.2-4.5 4-6 9.4q-0.1 0-0.1 0c0 0.1-1.3 2.9-2.1 4.4-0.3 0.5-0.5 1-0.6 1.6q0 0.1 0 0.1 0 0 0 0c-0.1 0.5-0.3 1-0.5 1.5-0.3 1.4-0.2 1.9 0 2 0.2 0.3 1 0.1 1.6-0.1 1-0.3 1.9-0.6 2.7-0.1 0.6 0.4 0.7 1.5 0.8 2.7v0.1c0 1.1 0.1 2.4 0.7 2.6 0.6 0.2 1.9-0.1 5.1-3 0.3-0.4 0.7-0.8 1.1-1.2 1.6-1.6 5.8-8.3 7.4-10.8z"/><path class="a" d="m161 45c1-0.4 1.8-1.5 2.2-2.9h-0.1q-0.1-0.2-0.2-0.5c-0.2-0.4-0.5-1.3-1-2.8v-0.2c-1-3-2.6-7.9-4.5-12.9-2.9-7.6-8.1-12.9-9.7-14.3q-0.2-0.2-0.4-0.5-0.1 0.7-0.4 1c-0.5 0.6-1.5 0.3-2.4 0.1-0.7-0.3-1.6-0.5-2-0.2-0.4 0.2-0.5 1.2-0.5 2.2-0.1 1.4-0.2 2.8-1.2 3.3q-0.3 0.1-0.6 0.1-1 0-2.7-1.2c0.7 0.8 1.4 1.9 2.5 3.3l0.1 0.1c1.3 1.8 2.4 3.8 3.5 5.8 1.9 3.2 3.8 6.5 6.6 9.4 4.5 4.6 6.5 7.6 7.4 9.5 1.3 0.8 2.5 1 3.4 0.7z"/><path class="a" d="m60.1 19.5c1-1.4 1.8-2.5 2.4-3.3-1.1 0.8-2 1.2-2.7 1.2q-0.3 0-0.5-0.1c-1.1-0.5-1.2-1.9-1.2-3.3-0.1-0.9-0.1-2-0.5-2.2-0.5-0.3-1.3-0.1-2 0.2-1 0.2-1.9 0.5-2.4-0.1q-0.4-0.3-0.4-1-0.2 0.3-0.5 0.5c-1.5 1.4-6.8 6.7-9.7 14.3-1.9 5-3.5 9.9-4.4 12.9l-0.1 0.2c-0.5 1.5-0.8 2.4-0.9 2.8q-0.2 0.3-0.3 0.5c0.4 1.4 1.2 2.5 2.1 2.9 0.9 0.3 2.2 0.1 3.4-0.7 0.9-1.9 2.9-4.9 7.5-9.5 2.8-2.9 4.7-6.2 6.5-9.4 1.2-2 2.3-4 3.6-5.8z"/><path fill-rule="evenodd" class="c" d="m167 56.1q0 0 0 0c0 1.1-0.3 2.4-0.6 3.7-0.2 0.8-0.5 1.6-0.6 2.4-0.2 1.3-1 1.9-2 2.6-0.6 0.4-1.3 0.9-1.9 1.7-0.1 0.1-0.4 0.1-0.5 0 0 0-0.8-0.6-0.8-1.6q0-0.1 0-0.2c-0.3-0.2-0.7-0.7-0.9-1.4q-0.2-0.8 0.4-1.7 0.2-0.2 0.3-0.4c0.6-0.9 0.6-0.9 0.2-2.4-0.1-0.7-0.2-1.3-0.2-1.8-0.1-0.6-0.1-1.1-0.4-1.7q-0.3-0.1-0.6-0.4c0 1.2-0.3 3.5-1.5 4.1q-0.9 0.5-2.2-0.4-0.1 0-0.1-0.2c-0.1-0.1-0.2-1.1 0.6-5 0.1-0.5 0-1-0.1-1.6-0.2-1.3-0.5-2.8 1.3-5 0.1-0.2 0.8-2.7-7.7-11.5-2.9-2.9-4.8-6.3-6.7-9.5-1.2-2-2.3-3.9-3.5-5.7l-0.1-0.1c-3.4-4.6-3.9-5.3-5.5-7-1.6-1.7-5.3-7.4-7.2-10.4-0.5 2.1-2 7.8-4.1 11.2-2.3 3.6-2.3 8.8-2.3 11.9q0 0.5 0 0.9c-0.1 2.6 0.7 11.4 1.8 16 0.6 2.2 0.5 3 0.5 3.7-0.1 0.8-0.1 1.5 0.7 4 1.7 5 6.1 26.6 2.9 44.3q0 0 0 0c-0.1 0.5-0.4 2.8-1 5.3 0 1.1 0.2 2.5 0.4 4 0.3 1.9 0.6 4.3 0.7 7.1 0 2.2 0.7 4.2 1.4 6.5q0.1 0.3 0.2 0.6c1 3.1 2.1 6.8 2.2 12.2q0.1 2.3-0.2 4.9-0.6 6.3-1.1 11.3c-0.7 7.1-1.2 11.8-1 13.4 0.2 1.9 0.4 3.2 0.7 4.5q0.1 0.5 0.2 1.1c0.3 0.4 2.1 2.8 3.7 3.8 0.3 0 1 0.2 1.7 1 0.4 0 1.4 0.1 2.2 1.1 0.2 0.2 1 1 0.8 2q-0.2 1-2 1.5c-1 0.2-2.4 0.6-3.9 1.1q-0.5 0.1-1.1 0.3c-0.4 0.5-2.4 2.8-6.4 2.8q-2.5 0-3.7-1.4c-1.1-1.2-1.1-3-1-4.2 0.3-1.9 0.3-4.8-0.1-6.7-0.2-0.9-0.1-1.4 0-2 0.1-0.7 0.2-1.5-0.1-3.6-0.4-3.6-2.5-11.9-4.8-18.6-0.4-1.2-0.8-2-1.1-2.8-1.5-3.3-1.9-4.3 0.3-23-0.1-1.8-0.7-2.6-1.5-3.6-1.3-1.5-3-3.5-3.7-10.1-0.9-7.5-2.3-12.3-3.7-17.4q-0.4-1.5-0.8-3 0 0 0 0-0.6-2.1-1.2-4.5c-1.4-6.1-1.6-9-1.9-12.5-0.1-1.1-0.2-2.3-0.4-3.6-0.1 1.3-0.2 2.5-0.3 3.6-0.3 3.5-0.6 6.4-2 12.5q-0.6 2.4-1.1 4.5 0 0 0 0-0.5 1.5-0.9 3c-1.4 5.1-2.7 9.9-3.6 17.4-0.8 6.6-2.5 8.6-3.7 10.1-0.9 1-1.5 1.8-1.5 3.6 2.2 18.7 1.7 19.7 0.2 23-0.3 0.8-0.7 1.6-1.1 2.8-2.3 6.7-4.3 15-4.8 18.6-0.2 2.1-0.1 2.9 0 3.6 0.1 0.6 0.1 1.1-0.1 2-0.4 1.9-0.3 4.8-0.1 6.6 0.2 1.3 0.1 3.1-1 4.3q-1.2 1.4-3.6 1.4c-4.1 0-6-2.3-6.5-2.8q-0.5-0.2-1.1-0.3c-1.4-0.5-2.8-0.9-3.8-1.1q-1.8-0.5-2.1-1.5c-0.2-1 0.7-1.8 0.9-2 0.7-1 1.7-1.1 2.1-1.1 0.7-0.8 1.4-1 1.7-1 1.7-1 3.5-3.4 3.8-3.8q0.1-0.6 0.2-1.1c0.2-1.3 0.5-2.6 0.6-4.5 0.2-1.6-0.3-6.3-1-13.4q-0.5-5-1.1-11.3-0.2-2.6-0.2-4.9c0.1-5.4 1.2-9.1 2.2-12.2q0.1-0.3 0.2-0.6c0.8-2.3 1.4-4.3 1.5-6.5 0-2.8 0.4-5.2 0.6-7.1 0.3-1.5 0.5-2.9 0.4-4-0.6-2.5-0.9-4.8-1-5.3q0 0 0 0c-3.2-17.7 1.2-39.3 2.9-44.3 0.9-2.5 0.8-3.2 0.8-4-0.1-0.7-0.1-1.5 0.4-3.7 1.1-4.6 1.9-13.4 1.8-16q0-0.4 0-0.9c0-3.1 0-8.3-2.3-11.9-2.1-3.4-3.6-9.1-4.1-11.2-1.9 3-5.5 8.7-7.1 10.3-1.7 1.8-2.2 2.5-5.5 7.1l-0.1 0.1c-1.3 1.7-2.4 3.6-3.6 5.7-1.8 3.2-3.7 6.6-6.6 9.5-8.6 8.8-7.9 11.3-7.8 11.5 1.8 2.2 1.5 3.7 1.3 5-0.1 0.6-0.2 1.1-0.1 1.7 0.8 3.8 0.7 4.8 0.7 4.9q-0.1 0.2-0.2 0.2-1.3 0.9-2.2 0.4c-1.2-0.6-1.4-2.9-1.5-4.1q-0.3 0.3-0.6 0.4c-0.2 0.5-0.3 1.1-0.3 1.7-0.1 0.5-0.1 1.1-0.3 1.8-0.4 1.5-0.4 1.5 0.3 2.4q0.1 0.2 0.2 0.4 0.6 0.9 0.4 1.7c-0.1 0.7-0.6 1.1-0.9 1.4q0 0.1 0 0.2c0 1-0.7 1.6-0.8 1.6-0.1 0.1-0.3 0.1-0.5 0-0.6-0.8-1.3-1.3-1.9-1.7-0.9-0.7-1.8-1.3-2-2.6-0.1-0.8-0.3-1.6-0.5-2.4-0.4-1.3-0.7-2.6-0.7-3.7q0 0 0 0c0.1-1 0.6-2.7 1.2-4.4 0.5-1.9 1.1-3.8 1.1-4.7-0.1-3.8 0.4-4.5 0.9-5.1 0.1-0.2 0.2-0.4 0.3-0.6 0.1-0.3 0.5-1.3 0.9-2.7 1-3 2.6-8.1 4.5-13.1 3-7.8 8.4-13.1 9.9-14.6 0.6-0.6 1-1.2 1.2-1.7q0.2-0.7 0.5-1.5c0.1-0.6 0.3-1.3 0.6-1.8 0.8-1.5 2-4.1 2.2-4.4 1.5-5.2 5.4-8.9 6.1-9.5 2.5-15.5 15.9-16.8 16-16.8q0 0 0 0 0 0 0 0 0.4 0 0.8 0 0 0 0.1-0.1c0.1 0 0.4-0.2 0.7-0.4 0.7-0.4 1.6-1 2.3-1.3 0.4-0.2 1.3-0.6 2.3-1 1.6-0.6 3.3-1.3 3.9-1.7 0.8-0.4 2.3-1.8 2.7-2.2 0.1-1.2 0-7.5 0-7.8-0.4-2.8-1.5-1.4-2.2-5.7-2.3-0.9-2.1-4.2-2.1-6.5 0-2.9 1.1-2.1 1.6-2.7-0.2-2.4-0.2-0.7-0.1-4 0.5-2.4 1-4.6 2.5-6.3 0.3-0.2 0.7-0.4 1.2-0.7v-0.1c2.3-1.8 5.1-4 9.7-1.8 1.1 0.3 1.7 0.2 2.2 0.2 0.7-0.1 1.4-0.2 2.9 0.6q0.2 0.1 0.4 0.2c2.2 1.2 4 2.1 4.2 8.5 0.1 0.4-0.1 1.8 0 3 0.9 0.4 1.7 0.2 1.4 2.8-0.3 2.7-1.4 5.8-2.5 6.2 0.5 2.7-0.9 3.5-1.3 6.3 0 1.3-0.3 6.7-0.1 7.9 0.3 0.3 1.7 1.7 2.6 2.1 0.6 0.4 2.3 1.1 3.8 1.7 1 0.4 1.9 0.8 2.3 1 0.7 0.3 1.6 0.9 2.3 1.3 0.3 0.2 0.6 0.4 0.7 0.4q0.1 0.1 0.1 0.1 0.4 0 0.8 0 0 0 0 0 0 0 0 0c0.2 0 13.5 1.3 16 16.8 0.7 0.6 4.7 4.3 6.2 9.5 0.1 0.3 1.3 2.9 2.1 4.4 0.3 0.5 0.5 1.2 0.6 1.8q0.3 0.8 0.5 1.5c0.2 0.6 0.6 1.1 1.2 1.7 1.6 1.5 6.9 6.8 9.9 14.6 1.9 5 3.5 10.1 4.5 13.1 0.5 1.4 0.8 2.4 0.9 2.7 0.1 0.3 0.2 0.4 0.3 0.6 0.5 0.6 1 1.3 0.9 5.1 0 0.9 0.6 2.8 1.2 4.7 0.5 1.7 1 3.4 1.1 4.4zm-45.4-80.2c-3.9-0.1-6.2 1.9-7.4 3.2 1.8 1.8 3.8 3.3 5.8 4.9 1.3 1 2.7 2.1 4.1 3.3 3.3 2.8 7.7 3 9.6 3q0.2 0.1 0.4 0.1c1 0 2.1 0.5 2.7 1-2.7-14.2-14.9-15.4-15.2-15.5zm-17 21.8c1.6-4.2 3.9-9.8 7.6-16.9-0.5 0.3-1 0.4-1.6 0.4-0.7 0-1.6-0.2-2.6-0.4-1.8-0.3-4.2-0.7-8-0.7-3.7 0-6.2 0.4-8 0.7-1 0.2-1.8 0.4-2.6 0.4-0.6 0-1.1-0.1-1.6-0.4 3.7 7.1 6 12.7 7.6 16.9q0 0 0 0 0.4 0.9 0.7 1.8 0.5 1.3 0.9 2.4c1.3 3.8 2 5.7 3 5.7 1.1 0 1.7-1.9 3.1-5.7q0.4-1.1 0.8-2.4 0.3-0.9 0.7-1.8 0 0 0 0zm6.4 38.3c-1.3-1.5-1.2-3.7-1.1-6 0.1-2.5 0.2-5.2-1.1-7.9-4.2-8-6.2-12.8-5.9-17.6-1 2.6-1.6 3.8-2.9 3.8-1.2 0-1.9-1.2-2.9-3.8 0.3 4.8-1.6 9.6-5.8 17.6-1.4 2.6-1.3 5.4-1.2 7.9 0.1 2.3 0.2 4.5-1 6 2.4-0.5 5.5-0.4 7.9 1.3q2.3 1.7 3 5 0.8-3.3 3-5c2.4-1.7 5.5-1.8 8-1.3zm2 1.4q-0.2 0-0.4-0.1-0.5-0.2-1-0.4c-2.4-0.7-5.7-0.8-8.1 1-2.1 1.5-3.1 4.2-3.1 7.8v12.4c0 2.3 0.5 3.9 1.5 4.8 1.3 1.3 3.5 1.3 5.9 1.2q0.4 0 0.9-0.1 0.1 0 0.2 0 0.1 0 0.2 0 0.1 0 0.3 0 0 0 0.1 0 0 0 0 0 0.3 0 0.6-0.1c1.7-0.1 5.8-0.7 8.1-4 1.9-2.8 2.1-6.8 0.4-11.9-0.3-1.1-0.6-2.1-0.8-3-1-3.6-1.7-6.1-4.8-7.6zm-20.8 26.7c2.4 0.1 4.6 0.1 6-1.2 1-0.9 1.5-2.5 1.5-4.8v-12.4c0-3.6-1.1-6.3-3.1-7.8-2.5-1.8-5.8-1.7-8.2-1q-0.5 0.2-1 0.4-0.2 0.1-0.4 0.1c-3.1 1.5-3.8 4-4.7 7.6-0.3 0.9-0.6 1.9-0.9 3-1.6 5.1-1.5 9.1 0.4 11.9 2.3 3.3 6.5 3.9 8.1 4q0.3 0.1 0.6 0.1 0 0 0.1 0 0 0 0 0 0.2 0 0.3 0 0.1 0 0.2 0 0.1 0 0.2 0 0.5 0.1 0.9 0.1zm-2.3-93.5c3.3-0.5 6.6-0.3 8.5-0.3q0.3 0.1 0.6 0.1 1 0 2 0 0.3 0 0.7-0.1c1.8 0 5.1-0.2 8.4 0.3-0.9-0.7-1.8-1.6-1.9-1.6q-0.1-0.1-0.1-0.3c0-0.2 0.1-4.9 0.1-7.7 0.3-2.3 0.7-2.8 1.2-4.2 0.2-0.7 0.3-1.3 0.2-3 1.5 0.1 3.2-8.1 1.6-7.6-0.5 0.2-0.6 3.8-1.6 6.7-0.8 2.1-0.2 5.1-4 8.1-2.2 1.3-3.3 1.4-5.6 1.4-2.4 0-3.2 0.1-5.7-1.4-4-3.9-4.5-6.7-4.8-8.1-0.9-2.8-0.5-6.2-1.5-6.2-0.5 0.7-1.2 7.1 1.5 7.6 0 1.2 0.5 1.9 0.7 2.7 0.5 1.3 1.6 1.8 1.7 4 0 0.4 0.1 6.7 0 7.7q0 0.2-0.1 0.3c0 0-1 0.9-1.9 1.6zm-9.5 4.7q0 0 0 0c3.5 0.5 5.4 2.7 6.4 3.8l0.2 0.2c1.3 1.5 2.4 1.3 4.9 0.8 1.8-0.3 4.3-0.8 8.1-0.8 3.8 0 6.3 0.5 8.2 0.8 2.5 0.5 3.5 0.7 4.9-0.8l0.1-0.2c1-1.1 2.9-3.3 6.4-3.8q0 0 0 0c-0.6-0.4-1.5-1-2.2-1.2-0.4-0.2-1.3-0.6-2.3-1-1-0.5-2.1-0.9-2.9-1.3q0 0 0 0c-4-1.1-8.2-0.9-10.5-0.7q-0.4 0-0.7 0-1 0-2 0-0.3 0-0.7 0c-2.2-0.2-6.5-0.4-10.4 0.7q0 0-0.1 0c-0.8 0.4-1.9 0.8-2.9 1.3-1 0.4-1.9 0.8-2.3 1-0.6 0.2-1.5 0.8-2.2 1.2zm-17.2 16.1c0.7-0.5 1.7-1 2.7-1q0.2 0 0.4-0.1c1.9 0 6.3-0.2 9.6-3 1.4-1.2 2.8-2.3 4.1-3.3 2.1-1.6 4-3.1 5.9-4.9-1.3-1.3-3.5-3.3-7.5-3.2-0.3 0.1-12.5 1.3-15.2 15.5zm-20 60.3c0.2-1.3 0.4-2.5-1.2-4.5-0.1-0.1-0.4-0.6 0-1.9-0.7 0.4-1.4 0.5-2.1 0.5q-0.6 0-1.2-0.2c-1-0.3-1.8-1.3-2.3-2.7-0.2 0.6-0.4 1.7-0.4 4.1 0 1-0.6 2.9-1.2 4.9-0.5 1.6-1 3.3-1.1 4.3 0 0.9 0.3 2.2 0.7 3.4 0.2 0.8 0.4 1.7 0.5 2.5 0.2 1 0.8 1.5 1.7 2.1 0.6 0.4 1.2 0.9 1.8 1.5 0.1-0.2 0.3-0.5 0.3-0.8q0-0.8-0.9-1.6 0-0.1 0-0.2c0 0-0.7-1.4-1.2-1.9-0.3-0.5-0.2-0.9 0-1.5 0.3-0.6 0.6-1.5 0.8-3.1 0.1-0.8 0.1-1.1 0.7-1.2 0.3 0 1-0.2 2.6-1.5q0.2-0.1 0.4 0c0.1 0 0.2 0.2 0.2 0.3 0 1 0.1 3.7 1.1 4.2q0.6 0.3 1.4-0.2c0-0.4 0-1.6-0.7-4.6-0.1-0.7 0-1.3 0.1-1.9zm-4.1 9.9c-0.8-1-0.9-1.2-0.4-3 0.1-0.6 0.2-1.1 0.2-1.6q0.1-0.6 0.2-1.1c-0.4 0.1-0.7 0.2-0.9 0.2q0 0 0 0c-0.1 0.1-0.1 0.4-0.1 0.5-0.2 1.8-0.6 2.8-0.8 3.3-0.2 0.6-0.2 0.7-0.1 0.8 0.4 0.5 1 1.8 1.2 2.1q0.6 0.5 0.8 1.1c0.2-0.2 0.3-0.4 0.4-0.7q0.1-0.6-0.3-1.2-0.1-0.2-0.2-0.4zm21-42c1-1.5 1.8-2.5 2.4-3.4q-1.7 1.2-2.7 1.2-0.3 0-0.6-0.1c-1-0.4-1.1-1.9-1.1-3.3-0.1-0.9-0.2-2-0.5-2.2-0.5-0.3-1.3 0-2.1 0.2-0.9 0.2-1.8 0.5-2.4 0q-0.3-0.4-0.3-1.1-0.2 0.3-0.5 0.5c-1.5 1.5-6.8 6.7-9.7 14.3-1.9 5.1-3.5 10.1-4.5 13.1-0.5 1.5-0.8 2.5-0.9 2.8q-0.2 0.3-0.3 0.5c0.4 1.4 1.2 2.5 2.1 2.9 0.9 0.3 2.2 0.1 3.4-0.7 0.9-1.9 2.9-4.9 7.5-9.5 2.8-2.9 4.7-6.2 6.5-9.4 1.2-2 2.3-3.9 3.6-5.7l0.1-0.2zm5.6-7.1c1.6-1.6 5.8-8.3 7.4-10.8l0.1-0.1c0.6-1 0.1-3.4-0.3-5.6-0.5-2.2-1-4.4-0.5-5.9-2.4 0.9-4.8 1-6 1.1q-0.2 0-0.4 0c-1.5 0.1-3 1.3-3.1 1.3-0.1 0.1-4.4 4-6 9.4q0 0 0 0c0 0.1-1.3 2.9-2.1 4.4-0.3 0.5-0.5 1.1-0.6 1.7-0.2 0.5-0.3 1-0.5 1.5-0.3 1.4-0.2 1.9 0 2.1 0.2 0.2 1 0 1.6-0.2 1-0.3 1.9-0.6 2.6-0.1 0.7 0.4 0.8 1.5 0.9 2.8 0 1.1 0.1 2.4 0.7 2.6 0.6 0.2 1.9-0.1 5.1-3 0.3-0.4 0.7-0.7 1.1-1.2zm14.8 14.2c0 2.6-0.8 11.3-1.9 16 1.9-2.6 5.6-4.8 8.2-5.8q0.1-0.1 0.3-0.2c2.5-1.2 2.4-3.6 2.3-6.6-0.1-2.5-0.2-5.4 1.2-8.2 5.6-10.5 7.1-15.2 4.9-21.9-1.7-4.6-4.3-11.3-9.1-20.2-1.9 1.8-3.9 3.3-5.9 4.9-1.3 1-2.7 2-4.1 3.2-0.9 0.7-1.8 1.3-2.7 1.7-1.2 0.8-0.7 3.6-0.1 6.3 0.5 2.4 1 4.6 0.3 5.9 0.2 1 1.8 7.9 4.1 11.7 2.4 3.8 2.4 9.3 2.5 12.3q0 0.4 0 0.9zm0 134.5c0.5-3.6 2.5-12 4.8-18.7q0.1-0.3 0.2-0.5-1 0.9-2.2 0.9-0.3 0-0.7-0.1c-2.2-0.5-2.4-3.1-2.6-5-0.1-0.8-0.2-2-0.5-2.1-0.2 0.1-0.8 1.2-1.1 2-1 2-2.3 4.6-4.2 4.5-1.4-0.1-2.4-1.3-3-3q0.4 4 0.7 7.3c0.7 7.2 1.2 11.9 1 13.6-0.1 1.9-0.4 3.2-0.6 4.6q-0.1 0.5-0.3 1.1 0 0.1 0 0.1c-0.1 0.2-2.2 3-4.1 4.2q-0.1 0.1-0.2 0c0 0-0.7 0-1.3 0.8q-0.1 0.2-0.3 0.2c-0.1 0-1.1-0.1-1.8 0.9q0 0-0.1 0c-0.2 0.2-0.7 0.8-0.6 1.3 0.1 0.4 0.6 0.8 1.5 1 1 0.2 2.4 0.6 3.9 1.1q0.6 0.2 1.3 0.4 0.1 0 0.2 0.1c0 0.1 1.8 2.6 5.9 2.6q2.1 0 3.1-1.1c0.9-1.1 0.9-2.8 0.8-3.8-0.3-1.9-0.3-4.8 0.1-6.8 0.2-0.8 0.1-1.2 0.1-1.8-0.1-0.7-0.3-1.6 0-3.8zm6.7-23.4c0.6-2 0.7-4.7-0.2-13.3-0.2 0-0.3-0.1-0.3-0.3-0.1-1.8-0.8-3.1-1.9-3.6-1-0.5-2.2-0.3-3.3 0.5-1.5 1.2-3.3-0.6-4.9-2.1-1-1.1-2.2-2.2-2.9-2-0.3 0.1-0.5 0.4-0.7 0.9-1 3.1-2.3 6.9-2.4 12.5 0.3 5.4 1 10.9 3.6 11.1 1.5 0 2.7-2.4 3.5-4.1 0.7-1.5 1.2-2.4 1.9-2.4 0.8 0.1 1 1.3 1.1 2.7 0.2 1.8 0.4 4.1 2.1 4.4 0.6 0.1 2.6 0.5 4.4-4.3zm0.6-24.9c1.1-1.3 2.3-2.8 3.1-7-1 2.9-2.2 4.1-3.9 4.1-3.4 0-3.5-5.2-3.6-8.3-0.1-0.7-0.1-1.4-0.1-1.8-0.3 0.3-0.7 1.2-1.5 3.3-1.1 2.6-2.1 3.9-3.3 3.7-1.3-0.1-2.3-2.3-3.1-4.8q-0.1 1-0.2 2c-0.3 2-0.7 4.2-0.7 7 0 1.8-0.5 3.4-1 5.2q0 0 0 0c1.1-0.3 2.3 0.9 3.6 2.1 1.4 1.5 2.9 2.9 4 2.1 1.3-0.9 2.8-1.1 4-0.5q1 0.4 1.6 1.4-0.3-2-0.6-4.4 0 0 0-0.1c0.1-2.1 0.8-3 1.7-4zm8.1-30.3c1.4-6 0.5-7.7-0.5-9.5-0.7-1.4-1.5-2.9-1.2-6.4q0-0.8-0.3-1.2c-0.4-0.4-1-0.5-1.7-0.6q-0.5 0-1.1 0-0.3-0.1-0.5-0.1-0.4 0-0.7 0c-1.8-0.1-6.2-0.8-8.7-4.4-2-3-2.2-7.2-0.5-12.5 0.4-1.1 0.6-2 0.9-3 0.6-2.3 1.1-4.2 2.3-5.8-2.8 1.7-5.5 4.2-5.7 6.5q0 0.5 0 0.8c0 0.9 0.1 1.6-0.8 4.3-1.8 5.3-6.7 29.7-2 47.8q0.1 0.6 0.2 1.4c0.7 3.2 1.8 6.2 3 6.3 0.4 0.1 1.3-0.3 2.5-3.3 1.5-3.7 1.9-4.1 2.3-4 0.6 0.1 0.6 0.9 0.7 2.8 0.1 2.8 0.2 7.6 2.9 7.6 2.5 0 4.1-4.1 5.5-14.2q0.1-0.2 0.2-0.3c0.7-3.3 1.5-6.2 2.3-9.2q0.5-1.4 0.9-3zm1.4-5.6c1.2-5.3 1.4-8 1.7-11.2 0-0.9 0.1-1.9 0.2-2.9q-0.2 0.4-0.5 0.7c-1.1 1-2.7 1.3-4.4 1.4q0.1 0 0.1 0.1 0.6 0.6 0.5 1.7c-0.3 3.3 0.4 4.6 1.2 6 0.5 1.1 1.1 2.2 1.2 4.2zm3.8-11.2c0.2 3.2 0.5 5.9 1.7 11.2 0-2 0.6-3.1 1.2-4.2 0.7-1.4 1.4-2.7 1.2-6q-0.1-1.1 0.4-1.7 0.1-0.1 0.1-0.1c-1.7-0.1-3.2-0.4-4.3-1.4q-0.3-0.3-0.6-0.7c0.1 1 0.2 2 0.3 2.9zm11.7 72c1.9 4.8 3.8 4.4 4.5 4.3 1.6-0.3 1.8-2.6 2-4.4 0.2-1.4 0.3-2.6 1.2-2.7 0.6 0 1.1 0.9 1.8 2.4 0.8 1.7 2 4.1 3.4 4.1q0.1 0 0.1 0c2.7-0.2 3.3-5.7 3.6-11.1-0.1-5.6-1.3-9.4-2.4-12.5-0.1-0.5-0.3-0.8-0.7-0.9-0.6-0.2-1.8 0.9-2.9 2-1.5 1.5-3.3 3.3-4.9 2.1-1-0.8-2.3-1-3.3-0.5-1.1 0.5-1.8 1.8-1.9 3.6 0 0.2-0.1 0.3-0.3 0.3-0.8 8.6-0.8 11.3-0.2 13.3zm15.3 8.7q0.3-3.3 0.7-7.3c-0.6 1.8-1.5 2.9-2.9 3-2 0.1-3.2-2.5-4.2-4.5-0.4-0.8-1-1.9-1.2-2-0.3 0.1-0.4 1.3-0.5 2.1-0.2 1.9-0.4 4.6-2.6 5q-0.3 0.1-0.7 0.1-1.2 0-2.2-0.9 0.1 0.2 0.2 0.5c2.3 6.7 4.4 15.1 4.8 18.7 0.3 2.2 0.2 3.1 0.1 3.8-0.1 0.6-0.2 1 0 1.8 0.4 2 0.4 4.9 0.1 6.9-0.1 0.9-0.1 2.6 0.9 3.7q1 1.1 3.1 1.1c4 0 5.8-2.5 5.9-2.6q0-0.1 0.2-0.1 0.6-0.2 1.2-0.4c1.5-0.5 2.9-0.9 3.9-1.1 0.9-0.2 1.4-0.6 1.5-1 0.1-0.5-0.4-1.1-0.6-1.2q0-0.1-0.1-0.1c-0.7-1-1.7-0.9-1.7-0.9q-0.2 0-0.4-0.2c-0.6-0.8-1.2-0.7-1.3-0.7q-0.1 0-0.2-0.1c-1.9-1.2-4-4-4.1-4.1q0-0.1 0-0.2-0.1-0.6-0.2-1.1c-0.3-1.4-0.5-2.7-0.7-4.6-0.2-1.7 0.3-6.4 1-13.6zm-3.2-42.4q-0.2-1-0.3-2c-0.7 2.5-1.8 4.7-3.1 4.8-1.1 0.2-2.2-1-3.2-3.7-0.9-2.1-1.3-3-1.5-3.3-0.1 0.4-0.1 1.1-0.1 1.8-0.1 3.1-0.3 8.3-3.7 8.3-1.6 0-2.8-1.2-3.9-4.1 0.8 4.2 2.1 5.7 3.1 7 0.9 1 1.7 1.9 1.7 4q0 0.1 0 0.1-0.3 2.4-0.5 4.4 0.6-1 1.5-1.4c1.3-0.6 2.8-0.4 4 0.5 1.1 0.8 2.6-0.6 4.1-2.1 1.2-1.2 2.5-2.4 3.5-2.1q0 0 0 0c-0.5-1.8-0.9-3.4-1-5.2 0-2.8-0.3-5-0.6-7zm-2.2-53.4c-1-2.7-0.9-3.4-0.8-4.3q0-0.3 0-0.8c-0.3-2.3-3-4.8-5.7-6.5 1.1 1.6 1.6 3.5 2.3 5.8 0.2 1 0.5 1.9 0.8 3 1.7 5.3 1.6 9.5-0.5 12.5-2.5 3.6-6.9 4.3-8.7 4.4q-0.3 0-0.6 0-0.3 0-0.6 0.1-0.5 0-1.1 0c-0.6 0.1-1.3 0.2-1.6 0.6q-0.4 0.4-0.3 1.2c0.2 3.5-0.5 5-1.3 6.4-0.9 1.8-1.8 3.5-0.4 9.5q0.4 1.6 0.8 3c0.8 3 1.6 5.9 2.3 9.2q0.2 0.1 0.2 0.3c1.5 10.1 3.1 14.2 5.5 14.2 2.7 0 2.9-4.8 3-7.7 0-1.8 0-2.6 0.6-2.7 0.5-0.1 0.9 0.3 2.3 4 1.2 3 2.1 3.4 2.5 3.3 1.2-0.1 2.3-3.1 3.1-6.3q0-0.7 0.1-1.4c4.8-18.1-0.1-42.5-1.9-47.8zm-0.7-37.2c2.3-3.7 3.9-10.6 4.2-11.7-0.7-1.3-0.2-3.5 0.3-5.9 0.5-2.7 1.1-5.5-0.1-6.3-1-0.4-1.9-0.9-2.7-1.7-1.5-1.1-2.8-2.2-4.1-3.2-2.1-1.6-4-3.1-5.9-4.9h-0.1c-4.8 8.9-7.4 15.6-9 20.2-2.2 6.7-0.7 11.4 4.8 21.9 1.5 2.8 1.3 5.7 1.2 8.2-0.1 3-0.2 5.4 2.3 6.6q0.2 0.1 0.4 0.2c2.5 1 6.2 3.2 8.1 5.9-1.1-4.7-1.9-13.5-1.8-16.1q0-0.4 0-0.9c0-3 0-8.5 2.4-12.3zm4.9-11.7c1.6 2.5 5.8 9.1 7.5 10.8 0.4 0.4 0.7 0.7 1 1.1 3.3 2.9 4.6 3.3 5.1 3 0.6-0.2 0.7-1.5 0.8-2.6 0-1.2 0.1-2.4 0.8-2.8 0.7-0.5 1.7-0.2 2.6 0.1 0.7 0.2 1.4 0.4 1.7 0.2 0.1-0.2 0.3-0.7-0.1-2.1-0.2-0.5-0.3-1-0.4-1.5-0.2-0.6-0.3-1.1-0.6-1.7-0.9-1.5-2.1-4.2-2.2-4.4q0 0 0 0c-1.6-5.4-5.9-9.3-6-9.3 0-0.1-1.6-1.3-3.1-1.4q-0.1 0-0.3 0c-1.3-0.1-3.7-0.2-6.1-1.1 0.5 1.5 0 3.7-0.4 5.9-0.5 2.3-1 4.6-0.4 5.6l0.1 0.2zm16.7 23.7c1.9 3.2 3.8 6.5 6.6 9.4 4.5 4.7 6.5 7.7 7.4 9.5 1.3 0.8 2.5 1 3.4 0.7 0.9-0.4 1.7-1.4 2.1-2.9q-0.1-0.2-0.2-0.5c-0.2-0.3-0.5-1.3-1-2.8-0.9-3-2.5-8-4.5-13-2.9-7.7-8.1-12.9-9.7-14.4q-0.2-0.2-0.5-0.4 0 0.6-0.3 1c-0.6 0.5-1.5 0.3-2.4 0-0.7-0.2-1.6-0.5-2-0.2-0.4 0.2-0.5 1.3-0.5 2.2-0.1 1.4-0.2 2.9-1.2 3.3q-0.3 0.1-0.6 0.1-1 0-2.7-1.2c0.7 0.9 1.4 1.9 2.5 3.4l0.1 0.1c1.3 1.8 2.4 3.7 3.5 5.7zm22.1 34.2c0.3-1.2 0.6-2.5 0.6-3.4-0.1-1-0.6-2.7-1.1-4.3-0.6-2-1.2-3.8-1.2-4.9 0.1-2.4-0.1-3.5-0.4-4.1-0.5 1.4-1.3 2.4-2.3 2.8q-0.5 0.2-1.2 0.2c-0.6 0-1.4-0.2-2.1-0.6 0.4 1.3 0.1 1.8 0.1 1.9-1.7 2-1.5 3.2-1.3 4.5 0.1 0.6 0.2 1.2 0.1 1.9-0.6 3-0.7 4.2-0.6 4.6q0.8 0.5 1.3 0.2c1-0.5 1.1-3.2 1.1-4.2 0-0.1 0.1-0.3 0.2-0.3 0.1-0.1 0.3-0.1 0.4 0 1.7 1.4 2.3 1.5 2.6 1.6 0.6 0.1 0.6 0.3 0.8 1 0.1 1.7 0.5 2.6 0.7 3.2 0.2 0.6 0.4 1 0 1.5-0.4 0.5-1.1 1.9-1.1 2q-0.1 0-0.1 0.1-0.9 0.8-0.9 1.6c0 0.3 0.2 0.6 0.3 0.8 0.6-0.6 1.2-1.1 1.8-1.5 0.9-0.6 1.6-1.1 1.7-2.1 0.1-0.8 0.4-1.6 0.6-2.5zm-5.3 3.6c0.1 0.3 0.3 0.5 0.4 0.7q0.3-0.6 0.8-1.1c0.2-0.3 0.8-1.5 1.3-2.1 0-0.1 0-0.2-0.2-0.7-0.2-0.6-0.6-1.6-0.7-3.4-0.1-0.1-0.1-0.3-0.1-0.4q-0.1 0-0.1 0c-0.2-0.1-0.4-0.1-0.8-0.3q0.1 0.5 0.1 1.1c0 0.5 0.1 1 0.2 1.6 0.5 1.8 0.4 2-0.3 3.1q-0.1 0.1-0.3 0.3-0.4 0.6-0.3 1.2z"/></g></svg>